<svg xmlns="http://www.w3.org/2000/svg" xmlns:xlink="http://www.w3.org/1999/xlink" width="500" zoomAndPan="magnify" viewBox="0 0 375 374.999991" height="500" preserveAspectRatio="xMidYMid meet" version="1.0"><defs><g/><clipPath id="id1"><path d="M 267 177 L 271.691406 177 L 271.691406 187 L 267 187 Z M 267 177 " clip-rule="nonzero"/></clipPath><clipPath id="id2"><path d="M 155 93.347656 L 180 93.347656 L 180 116 L 155 116 Z M 155 93.347656 " clip-rule="nonzero"/></clipPath><clipPath id="id3"><path d="M 165 93.347656 L 195 93.347656 L 195 116 L 165 116 Z M 165 93.347656 " clip-rule="nonzero"/></clipPath><clipPath id="id4"><path d="M 180 93.347656 L 202 93.347656 L 202 116 L 180 116 Z M 180 93.347656 " clip-rule="nonzero"/></clipPath><clipPath id="id5"><path d="M 102.941406 161 L 122 161 L 122 184 L 102.941406 184 Z M 102.941406 161 " clip-rule="nonzero"/></clipPath><clipPath id="id6"><path d="M 252 161 L 271.691406 161 L 271.691406 184 L 252 184 Z M 252 161 " clip-rule="nonzero"/></clipPath><clipPath id="id7"><path d="M 112 183 L 136 183 L 136 205.847656 L 112 205.847656 Z M 112 183 " clip-rule="nonzero"/></clipPath><clipPath id="id8"><path d="M 121 183 L 151 183 L 151 205.847656 L 121 205.847656 Z M 121 183 " clip-rule="nonzero"/></clipPath><clipPath id="id9"><path d="M 136 183 L 165 183 L 165 205.847656 L 136 205.847656 Z M 136 183 " clip-rule="nonzero"/></clipPath><clipPath id="id10"><path d="M 150 183 L 181 183 L 181 205.847656 L 150 205.847656 Z M 150 183 " clip-rule="nonzero"/></clipPath><clipPath id="id11"><path d="M 166 183 L 194 183 L 194 205.847656 L 166 205.847656 Z M 166 183 " clip-rule="nonzero"/></clipPath></defs><g clip-path="url(#id1)"><path fill="#26b9f1" d="M 269.441406 186.992188 C 270.722656 183.992188 271.503906 180.71875 271.664062 177.289062 L 267.460938 183.886719 L 269.441406 186.992188 " fill-opacity="1" fill-rule="nonzero"/></g><path fill="#a1e1f9" d="M 165.457031 115.3125 L 161.710938 109.433594 L 155.601562 99.851562 C 152.007812 102.433594 148.929688 105.683594 146.546875 109.433594 C 145.371094 111.28125 144.367188 113.25 143.550781 115.3125 L 165.457031 115.3125 " fill-opacity="1" fill-rule="nonzero"/><g clip-path="url(#id2)"><path fill="#ade5fa" d="M 161.710938 109.433594 L 165.457031 115.3125 L 169.207031 109.433594 L 179.308594 93.578125 C 178.117188 93.453125 176.90625 93.382812 175.675781 93.382812 C 174.363281 93.382812 173.070312 93.464844 171.800781 93.609375 C 165.800781 94.285156 160.269531 96.496094 155.601562 99.851562 L 161.710938 109.433594 " fill-opacity="1" fill-rule="nonzero"/></g><g clip-path="url(#id3)"><path fill="#a1e1f9" d="M 165.457031 115.3125 L 194.601562 115.3125 L 193.351562 113.347656 L 190.855469 109.433594 L 180.878906 93.785156 C 180.359375 93.707031 179.835938 93.632812 179.308594 93.578125 L 169.207031 109.433594 L 165.457031 115.3125 " fill-opacity="1" fill-rule="nonzero"/></g><g clip-path="url(#id4)"><path fill="#ade5fa" d="M 193.351562 113.347656 L 194.601562 115.3125 L 198.347656 109.433594 L 201.292969 104.8125 C 200.808594 104.277344 200.304688 103.757812 199.789062 103.25 C 196.144531 99.679688 191.71875 96.90625 186.792969 95.226562 C 184.890625 94.574219 182.914062 94.09375 180.878906 93.785156 L 190.855469 109.433594 L 193.351562 113.347656 " fill-opacity="1" fill-rule="nonzero"/></g><path fill="#a1e1f9" d="M 197.097656 111.390625 L 194.601562 115.3125 L 223.746094 115.3125 L 219.996094 109.433594 L 215.507812 102.390625 C 214.144531 102.03125 212.71875 101.835938 211.246094 101.835938 C 207.597656 101.835938 204.222656 103.011719 201.476562 105.007812 C 201.414062 104.941406 201.351562 104.878906 201.292969 104.8125 L 198.347656 109.433594 L 197.097656 111.390625 " fill-opacity="1" fill-rule="nonzero"/><path fill="#ade5fa" d="M 223.746094 115.3125 L 226.277344 111.335938 C 225.960938 110.679688 225.613281 110.039062 225.21875 109.433594 C 222.992188 106.011719 219.550781 103.457031 215.507812 102.390625 L 219.996094 109.433594 L 223.746094 115.3125 " fill-opacity="1" fill-rule="nonzero"/><path fill="#a1e1f9" d="M 226.242188 115.3125 L 234.664062 115.3125 C 234.296875 115.207031 233.925781 115.113281 233.550781 115.023438 C 231.746094 114.605469 229.871094 114.378906 227.9375 114.378906 C 227.757812 114.378906 227.582031 114.386719 227.40625 114.390625 C 227.351562 114.179688 227.28125 113.980469 227.21875 113.773438 C 226.96875 112.929688 226.652344 112.117188 226.277344 111.335938 L 223.746094 115.3125 L 226.242188 115.3125 " fill-opacity="1" fill-rule="nonzero"/><path fill="#8cdaf8" d="M 124.695312 133.535156 L 126.09375 131.34375 C 125.585938 132.039062 125.109375 132.765625 124.695312 133.535156 " fill-opacity="1" fill-rule="nonzero"/><path fill="#7bd4f7" d="M 145.890625 138.171875 L 150.886719 138.171875 L 149.636719 136.210938 L 147.140625 132.292969 L 141.445312 123.359375 C 141.429688 123.46875 141.410156 123.574219 141.398438 123.683594 C 141.300781 123.675781 141.207031 123.667969 141.109375 123.667969 C 139.679688 123.667969 138.292969 123.847656 136.957031 124.152344 C 132.519531 125.167969 128.699219 127.773438 126.09375 131.34375 L 124.695312 133.535156 C 124.238281 134.386719 123.863281 135.285156 123.542969 136.210938 C 123.316406 136.847656 123.128906 137.503906 122.972656 138.171875 L 145.890625 138.171875 " fill-opacity="1" fill-rule="nonzero"/><path fill="#8cdaf8" d="M 149.636719 136.210938 L 150.886719 138.171875 L 152.136719 136.210938 L 165.457031 115.3125 L 143.550781 115.3125 C 142.542969 117.859375 141.828125 120.558594 141.445312 123.359375 L 147.140625 132.292969 L 149.636719 136.210938 " fill-opacity="1" fill-rule="nonzero"/><path fill="#7bd4f7" d="M 180.027344 138.171875 L 178.78125 136.210938 L 165.457031 115.3125 L 152.136719 136.210938 L 150.886719 138.171875 L 180.027344 138.171875 " fill-opacity="1" fill-rule="nonzero"/><path fill="#8cdaf8" d="M 178.78125 136.210938 L 180.027344 138.171875 L 181.277344 136.210938 L 194.601562 115.3125 L 165.457031 115.3125 L 178.78125 136.210938 " fill-opacity="1" fill-rule="nonzero"/><path fill="#7bd4f7" d="M 180.027344 138.171875 L 209.171875 138.171875 L 207.921875 136.210938 L 194.601562 115.3125 L 181.277344 136.210938 L 180.027344 138.171875 " fill-opacity="1" fill-rule="nonzero"/><path fill="#8cdaf8" d="M 209.171875 138.171875 L 211.671875 134.25 L 223.746094 115.3125 L 194.601562 115.3125 L 207.921875 136.210938 L 209.171875 138.171875 " fill-opacity="1" fill-rule="nonzero"/><path fill="#7bd4f7" d="M 210.421875 136.210938 L 209.171875 138.171875 L 238.3125 138.171875 L 237.066406 136.210938 L 224.992188 117.269531 L 223.746094 115.3125 L 211.671875 134.25 L 210.421875 136.210938 " fill-opacity="1" fill-rule="nonzero"/><path fill="#8cdaf8" d="M 226.242188 115.3125 L 223.746094 115.3125 L 224.992188 117.269531 L 237.066406 136.210938 L 238.3125 138.171875 L 239.566406 136.210938 L 243.308594 130.332031 L 247.433594 123.863281 C 244.222656 119.792969 239.78125 116.75 234.664062 115.3125 L 226.242188 115.3125 " fill-opacity="1" fill-rule="nonzero"/><path fill="#7bd4f7" d="M 239.566406 136.210938 L 238.3125 138.171875 L 252.773438 138.171875 C 252.742188 137.507812 252.679688 136.859375 252.601562 136.210938 C 252.328125 134.050781 251.785156 131.972656 251 130.019531 C 250.105469 127.789062 248.898438 125.722656 247.433594 123.863281 L 243.308594 130.332031 L 239.566406 136.210938 " fill-opacity="1" fill-rule="nonzero"/><path fill="#52c7f4" d="M 128.820312 161.027344 L 136.3125 161.027344 L 132.566406 155.152344 L 122.699219 139.671875 C 122.570312 140.558594 122.480469 141.460938 122.480469 142.382812 C 122.480469 144.703125 122.90625 146.925781 123.679688 148.980469 C 122.28125 149.394531 120.929688 149.917969 119.628906 150.523438 C 114.699219 152.832031 110.523438 156.484375 107.582031 161.027344 L 128.820312 161.027344 " fill-opacity="1" fill-rule="nonzero"/><path fill="#64cdf5" d="M 136.3125 161.027344 L 148.390625 142.089844 L 150.886719 138.171875 L 122.972656 138.171875 C 122.859375 138.664062 122.773438 139.164062 122.699219 139.671875 L 132.566406 155.152344 L 136.3125 161.027344 " fill-opacity="1" fill-rule="nonzero"/><path fill="#52c7f4" d="M 162.960938 161.027344 L 165.457031 161.027344 L 164.210938 159.066406 L 150.886719 138.171875 L 148.390625 142.089844 L 136.3125 161.027344 L 162.960938 161.027344 " fill-opacity="1" fill-rule="nonzero"/><path fill="#64cdf5" d="M 165.457031 161.027344 L 180.027344 138.171875 L 150.886719 138.171875 L 164.210938 159.066406 L 165.457031 161.027344 " fill-opacity="1" fill-rule="nonzero"/><path fill="#52c7f4" d="M 180.027344 138.171875 L 165.457031 161.027344 L 194.601562 161.027344 L 187.316406 149.601562 L 180.027344 138.171875 " fill-opacity="1" fill-rule="nonzero"/><path fill="#64cdf5" d="M 180.03125 138.171875 L 180.027344 138.171875 L 187.316406 149.601562 L 194.601562 161.027344 L 209.171875 138.171875 L 180.03125 138.171875 " fill-opacity="1" fill-rule="nonzero"/><path fill="#52c7f4" d="M 209.171875 138.171875 L 194.601562 161.027344 L 223.746094 161.027344 L 210.417969 140.128906 L 209.171875 138.171875 " fill-opacity="1" fill-rule="nonzero"/><path fill="#64cdf5" d="M 211.667969 138.171875 L 209.171875 138.171875 L 210.417969 140.128906 L 223.746094 161.027344 L 226.242188 157.109375 L 238.3125 138.171875 L 211.667969 138.171875 " fill-opacity="1" fill-rule="nonzero"/><path fill="#52c7f4" d="M 238.3125 138.171875 L 226.242188 157.109375 L 223.746094 161.027344 L 252.886719 161.027344 L 242.0625 144.046875 L 238.3125 138.171875 " fill-opacity="1" fill-rule="nonzero"/><path fill="#64cdf5" d="M 245.808594 138.171875 L 238.3125 138.171875 L 242.0625 144.046875 L 252.886719 161.027344 L 257.882812 153.191406 L 258.566406 152.117188 C 257.871094 151.675781 257.152344 151.269531 256.414062 150.894531 C 254.691406 150.007812 252.878906 149.277344 250.972656 148.765625 C 251.535156 147.375 251.976562 145.917969 252.285156 144.414062 C 252.621094 142.78125 252.800781 141.089844 252.800781 139.355469 C 252.800781 138.960938 252.792969 138.5625 252.773438 138.171875 L 245.808594 138.171875 " fill-opacity="1" fill-rule="nonzero"/><path fill="#52c7f4" d="M 252.886719 161.027344 L 267.433594 161.027344 C 267.097656 160.492188 266.742188 159.96875 266.375 159.457031 C 264.265625 156.535156 261.617188 154.042969 258.566406 152.117188 L 257.882812 153.191406 L 252.886719 161.027344 " fill-opacity="1" fill-rule="nonzero"/><g clip-path="url(#id5)"><path fill="#26b9f1" d="M 114.246094 183.886719 L 121.742188 183.886719 L 117.996094 178.007812 L 108.421875 162.988281 L 107.378906 161.351562 C 107.042969 161.886719 106.71875 162.429688 106.421875 162.988281 C 104.195312 167.097656 102.925781 171.804688 102.925781 176.8125 C 102.925781 177.1875 102.941406 177.554688 102.957031 177.925781 C 103.03125 179.972656 103.316406 181.96875 103.796875 183.886719 L 114.246094 183.886719 " fill-opacity="1" fill-rule="nonzero"/></g><path fill="#45c3f3" d="M 117.996094 178.007812 L 121.742188 183.886719 L 131.316406 168.863281 L 136.3125 161.027344 L 107.582031 161.027344 C 107.511719 161.136719 107.445312 161.242188 107.378906 161.351562 L 108.421875 162.988281 L 117.996094 178.007812 " fill-opacity="1" fill-rule="nonzero"/><path fill="#26b9f1" d="M 137.5625 162.988281 L 136.3125 161.027344 L 131.316406 168.863281 L 121.742188 183.886719 L 150.886719 183.886719 L 149.636719 181.925781 L 137.5625 162.988281 " fill-opacity="1" fill-rule="nonzero"/><path fill="#45c3f3" d="M 164.207031 162.988281 L 165.457031 161.027344 L 136.3125 161.027344 L 137.5625 162.988281 L 149.636719 181.925781 L 150.886719 183.886719 L 162.957031 164.945312 L 164.207031 162.988281 " fill-opacity="1" fill-rule="nonzero"/><path fill="#26b9f1" d="M 165.457031 161.027344 L 162.957031 164.945312 L 150.886719 183.886719 L 180.027344 183.886719 L 166.707031 162.988281 L 165.457031 161.027344 " fill-opacity="1" fill-rule="nonzero"/><path fill="#45c3f3" d="M 194.601562 161.027344 L 165.457031 161.027344 L 166.707031 162.988281 L 180.027344 183.886719 L 193.351562 162.988281 L 194.601562 161.027344 " fill-opacity="1" fill-rule="nonzero"/><path fill="#26b9f1" d="M 195.847656 162.988281 L 194.601562 161.027344 L 193.351562 162.988281 L 180.027344 183.886719 L 209.171875 183.886719 L 195.851562 162.988281 L 195.847656 162.988281 " fill-opacity="1" fill-rule="nonzero"/><path fill="#45c3f3" d="M 223.746094 161.027344 L 194.601562 161.027344 L 195.847656 162.988281 L 195.851562 162.988281 L 209.171875 183.886719 L 222.496094 162.988281 L 223.746094 161.027344 " fill-opacity="1" fill-rule="nonzero"/><path fill="#26b9f1" d="M 224.992188 162.988281 L 223.746094 161.027344 L 222.496094 162.988281 L 209.171875 183.886719 L 238.3125 183.886719 L 227.492188 166.90625 L 224.992188 162.988281 " fill-opacity="1" fill-rule="nonzero"/><path fill="#45c3f3" d="M 228.738281 161.027344 L 223.746094 161.027344 L 227.492188 166.90625 L 238.3125 183.886719 L 240.8125 179.96875 L 251.636719 162.988281 L 252.886719 161.027344 L 228.738281 161.027344 " fill-opacity="1" fill-rule="nonzero"/><path fill="#26b9f1" d="M 240.8125 179.96875 L 238.3125 183.886719 L 267.460938 183.886719 L 259.128906 170.820312 L 254.132812 162.988281 L 252.886719 161.027344 L 251.636719 162.988281 L 240.8125 179.96875 " fill-opacity="1" fill-rule="nonzero"/><g clip-path="url(#id6)"><path fill="#45c3f3" d="M 268.550781 162.988281 C 268.203125 162.316406 267.832031 161.664062 267.433594 161.027344 L 252.886719 161.027344 L 254.132812 162.988281 L 259.128906 170.820312 L 267.460938 183.886719 L 271.664062 177.289062 C 271.6875 176.835938 271.703125 176.375 271.703125 175.917969 C 271.703125 175.539062 271.671875 175.171875 271.65625 174.796875 C 271.488281 170.550781 270.390625 166.546875 268.550781 162.988281 " fill-opacity="1" fill-rule="nonzero"/></g><path fill="#14b4f0" d="M 117.996094 189.761719 L 121.742188 183.886719 L 103.796875 183.886719 C 104.3125 185.941406 105.042969 187.910156 105.96875 189.761719 C 106.609375 191.050781 107.339844 192.277344 108.15625 193.445312 C 109.417969 195.25 110.875 196.910156 112.5 198.378906 L 114.246094 195.640625 L 117.996094 189.761719 " fill-opacity="1" fill-rule="nonzero"/><g clip-path="url(#id7)"><path fill="#00adef" d="M 125.488281 189.761719 L 121.742188 183.886719 L 117.996094 189.761719 L 114.246094 195.640625 L 112.5 198.378906 C 114.371094 200.070312 116.464844 201.511719 118.730469 202.667969 C 122.65625 204.675781 127.09375 205.8125 131.796875 205.8125 C 131.921875 205.8125 132.042969 205.804688 132.167969 205.800781 L 132.167969 205.804688 L 134.441406 205.765625 L 135.675781 205.742188 L 135.0625 204.785156 L 125.488281 189.761719 " fill-opacity="1" fill-rule="nonzero"/></g><g clip-path="url(#id8)"><path fill="#14b4f0" d="M 147.140625 189.761719 L 150.886719 183.886719 L 121.742188 183.886719 L 125.488281 189.761719 L 135.0625 204.785156 L 135.675781 205.742188 L 136.964844 205.722656 L 145.890625 191.722656 L 147.140625 189.761719 " fill-opacity="1" fill-rule="nonzero"/></g><g clip-path="url(#id9)"><path fill="#00adef" d="M 150.886719 183.886719 L 147.140625 189.761719 L 145.890625 191.722656 L 136.964844 205.722656 L 154.625 205.421875 L 164.507812 205.253906 L 154.632812 189.761719 L 150.886719 183.886719 " fill-opacity="1" fill-rule="nonzero"/></g><g clip-path="url(#id10)"><path fill="#14b4f0" d="M 177.53125 187.804688 L 180.027344 183.886719 L 150.886719 183.886719 L 154.632812 189.761719 L 164.507812 205.253906 L 166.429688 205.21875 L 176.28125 189.761719 L 177.53125 187.804688 " fill-opacity="1" fill-rule="nonzero"/></g><g clip-path="url(#id11)"><path fill="#00adef" d="M 181.277344 185.847656 L 180.027344 183.886719 L 177.53125 187.804688 L 176.28125 189.761719 L 166.429688 205.21875 L 168.953125 205.175781 L 188.394531 204.84375 L 193.335938 204.761719 L 183.773438 189.761719 L 181.277344 185.847656 " fill-opacity="1" fill-rule="nonzero"/></g><path fill="#14b4f0" d="M 209.171875 183.886719 L 180.027344 183.886719 L 181.277344 185.847656 L 183.773438 189.761719 L 193.335938 204.761719 L 195.890625 204.71875 L 205.425781 189.761719 L 209.171875 183.886719 " fill-opacity="1" fill-rule="nonzero"/><path fill="#00adef" d="M 212.917969 189.761719 L 209.171875 183.886719 L 205.425781 189.761719 L 195.890625 204.71875 L 203.464844 204.589844 L 222.164062 204.269531 L 222.167969 204.269531 L 212.917969 189.761719 " fill-opacity="1" fill-rule="nonzero"/><path fill="#14b4f0" d="M 238.3125 183.886719 L 209.171875 183.886719 L 212.917969 189.761719 L 222.167969 204.269531 L 225.355469 204.214844 L 234.570312 189.761719 L 238.3125 183.886719 " fill-opacity="1" fill-rule="nonzero"/><path fill="#00adef" d="M 242.0625 189.761719 L 238.3125 183.886719 L 234.570312 189.761719 L 225.355469 204.214844 L 237.980469 204 L 241.589844 203.9375 C 242.289062 203.988281 243 204.023438 243.71875 204.023438 C 246.09375 204.023438 248.402344 203.722656 250.605469 203.164062 L 244.558594 193.679688 L 242.0625 189.761719 " fill-opacity="1" fill-rule="nonzero"/><path fill="#14b4f0" d="M 267.460938 183.886719 L 238.3125 183.886719 L 242.0625 189.761719 L 244.558594 193.679688 L 250.605469 203.164062 C 252.019531 202.804688 253.390625 202.335938 254.710938 201.769531 C 255.371094 201.488281 256.015625 201.171875 256.648438 200.84375 L 263.714844 189.761719 L 267.460938 183.886719 " fill-opacity="1" fill-rule="nonzero"/><path fill="#00adef" d="M 263.714844 189.761719 L 256.648438 200.84375 C 261.4375 198.328125 265.410156 194.472656 268.066406 189.761719 C 268.570312 188.867188 269.03125 187.945312 269.441406 186.992188 L 267.460938 183.886719 L 263.714844 189.761719 " fill-opacity="1" fill-rule="nonzero"/><g fill="#00adef" fill-opacity="1"><g transform="translate(48.935778, 255.350945)"><g><path d="M 16 -5.796875 C 17.34375 -5.796875 18.65625 -6.101562 19.9375 -6.71875 C 21.226562 -7.332031 22.535156 -8.367188 23.859375 -9.828125 L 27.96875 -5.921875 C 26.320312 -3.796875 24.441406 -2.1875 22.328125 -1.09375 C 20.210938 0 18.035156 0.546875 15.796875 0.546875 C 13.773438 0.546875 11.878906 0.132812 10.109375 -0.6875 C 8.347656 -1.519531 6.816406 -2.632812 5.515625 -4.03125 C 4.210938 -5.425781 3.191406 -7.054688 2.453125 -8.921875 C 1.710938 -10.785156 1.34375 -12.769531 1.34375 -14.875 C 1.34375 -16.96875 1.726562 -18.9375 2.5 -20.78125 C 3.269531 -22.632812 4.3125 -24.257812 5.625 -25.65625 C 6.945312 -27.0625 8.503906 -28.171875 10.296875 -28.984375 C 12.085938 -29.796875 13.988281 -30.203125 16 -30.203125 C 17.875 -30.203125 19.65625 -29.847656 21.34375 -29.140625 C 23.039062 -28.441406 24.703125 -27.28125 26.328125 -25.65625 L 22.640625 -21.171875 C 21.460938 -22.265625 20.347656 -23 19.296875 -23.375 C 18.242188 -23.75 17.144531 -23.9375 16 -23.9375 C 14.851562 -23.9375 13.769531 -23.695312 12.75 -23.21875 C 11.726562 -22.75 10.835938 -22.109375 10.078125 -21.296875 C 9.328125 -20.484375 8.734375 -19.523438 8.296875 -18.421875 C 7.859375 -17.316406 7.640625 -16.132812 7.640625 -14.875 C 7.640625 -13.613281 7.859375 -12.4375 8.296875 -11.34375 C 8.734375 -10.25 9.328125 -9.285156 10.078125 -8.453125 C 10.835938 -7.628906 11.726562 -6.976562 12.75 -6.5 C 13.769531 -6.03125 14.851562 -5.796875 16 -5.796875 Z M 16 -5.796875 "/></g></g></g><g fill="#00adef" fill-opacity="1"><g transform="translate(78.11757, 255.350945)"><g><path d="M 2.0625 -30.703125 L 7.859375 -30.703125 L 7.859375 0 L 2.0625 0 Z M 2.0625 -30.703125 "/></g></g></g><g fill="#00adef" fill-opacity="1"><g transform="translate(87.648884, 255.350945)"><g><path d="M 12.140625 -21.421875 C 13.617188 -21.421875 15.015625 -21.132812 16.328125 -20.5625 C 17.648438 -19.988281 18.800781 -19.203125 19.78125 -18.203125 C 20.757812 -17.210938 21.535156 -16.050781 22.109375 -14.71875 C 22.679688 -13.382812 22.96875 -11.960938 22.96875 -10.453125 C 22.96875 -8.941406 22.679688 -7.519531 22.109375 -6.1875 C 21.535156 -4.863281 20.757812 -3.703125 19.78125 -2.703125 C 18.800781 -1.710938 17.648438 -0.929688 16.328125 -0.359375 C 15.015625 0.210938 13.617188 0.5 12.140625 0.5 C 10.628906 0.5 9.210938 0.210938 7.890625 -0.359375 C 6.578125 -0.929688 5.429688 -1.710938 4.453125 -2.703125 C 3.472656 -3.703125 2.695312 -4.863281 2.125 -6.1875 C 1.550781 -7.519531 1.265625 -8.941406 1.265625 -10.453125 C 1.265625 -11.960938 1.550781 -13.382812 2.125 -14.71875 C 2.695312 -16.050781 3.472656 -17.210938 4.453125 -18.203125 C 5.429688 -19.203125 6.578125 -19.988281 7.890625 -20.5625 C 9.210938 -21.132812 10.628906 -21.421875 12.140625 -21.421875 Z M 12.140625 -4.578125 C 12.835938 -4.578125 13.488281 -4.71875 14.09375 -5 C 14.695312 -5.28125 15.226562 -5.664062 15.6875 -6.15625 C 16.144531 -6.644531 16.503906 -7.234375 16.765625 -7.921875 C 17.035156 -8.609375 17.171875 -9.367188 17.171875 -10.203125 C 17.171875 -11.046875 17.035156 -11.832031 16.765625 -12.5625 C 16.503906 -13.289062 16.144531 -13.925781 15.6875 -14.46875 C 15.226562 -15.007812 14.695312 -15.441406 14.09375 -15.765625 C 13.488281 -16.085938 12.835938 -16.25 12.140625 -16.25 C 11.441406 -16.25 10.78125 -16.085938 10.15625 -15.765625 C 9.539062 -15.441406 9.003906 -15.007812 8.546875 -14.46875 C 8.085938 -13.925781 7.722656 -13.289062 7.453125 -12.5625 C 7.191406 -11.832031 7.0625 -11.046875 7.0625 -10.203125 C 7.0625 -9.367188 7.191406 -8.609375 7.453125 -7.921875 C 7.722656 -7.234375 8.085938 -6.644531 8.546875 -6.15625 C 9.003906 -5.664062 9.539062 -5.28125 10.15625 -5 C 10.78125 -4.71875 11.441406 -4.578125 12.140625 -4.578125 Z M 12.140625 -4.578125 "/></g></g></g><g fill="#00adef" fill-opacity="1"><g transform="translate(111.750105, 255.350945)"><g><path d="M 15.078125 -20.828125 L 20.875 -20.828125 L 20.875 0 L 15.921875 0 L 15.078125 -1.59375 C 14.398438 -1.113281 13.632812 -0.726562 12.78125 -0.4375 C 11.9375 -0.144531 11.019531 0 10.03125 0 C 9.28125 0 8.421875 -0.109375 7.453125 -0.328125 C 6.484375 -0.554688 5.578125 -0.976562 4.734375 -1.59375 C 3.898438 -2.207031 3.195312 -3.0625 2.625 -4.15625 C 2.050781 -5.25 1.765625 -6.664062 1.765625 -8.40625 L 1.765625 -20.828125 L 7.609375 -20.828125 L 7.609375 -8.609375 C 7.609375 -7.960938 7.710938 -7.414062 7.921875 -6.96875 C 8.128906 -6.519531 8.40625 -6.160156 8.75 -5.890625 C 9.101562 -5.628906 9.503906 -5.4375 9.953125 -5.3125 C 10.398438 -5.1875 10.863281 -5.125 11.34375 -5.125 C 11.707031 -5.125 12.101562 -5.1875 12.53125 -5.3125 C 12.96875 -5.4375 13.375 -5.640625 13.75 -5.921875 C 14.132812 -6.203125 14.453125 -6.566406 14.703125 -7.015625 C 14.953125 -7.460938 15.078125 -7.992188 15.078125 -8.609375 Z M 15.078125 -20.828125 "/></g></g></g><g fill="#00adef" fill-opacity="1"><g transform="translate(134.549699, 255.350945)"><g><path d="M 22.890625 -30.65625 L 22.890625 0 L 17.9375 0 L 17.09375 -1.8125 C 16.445312 -1.132812 15.554688 -0.578125 14.421875 -0.140625 C 13.285156 0.285156 12.101562 0.5 10.875 0.5 C 9.394531 0.5 8.023438 0.210938 6.765625 -0.359375 C 5.503906 -0.929688 4.414062 -1.710938 3.5 -2.703125 C 2.59375 -3.703125 1.878906 -4.863281 1.359375 -6.1875 C 0.847656 -7.519531 0.59375 -8.941406 0.59375 -10.453125 C 0.59375 -11.960938 0.847656 -13.382812 1.359375 -14.71875 C 1.878906 -16.050781 2.59375 -17.210938 3.5 -18.203125 C 4.414062 -19.203125 5.503906 -19.988281 6.765625 -20.5625 C 8.023438 -21.132812 9.394531 -21.421875 10.875 -21.421875 C 12.195312 -21.421875 13.367188 -21.265625 14.390625 -20.953125 C 15.410156 -20.648438 16.3125 -20.132812 17.09375 -19.40625 L 17.09375 -30.65625 Z M 17.09375 -10.375 C 17.09375 -11.46875 16.953125 -12.382812 16.671875 -13.125 C 16.390625 -13.863281 15.992188 -14.460938 15.484375 -14.921875 C 14.984375 -15.390625 14.40625 -15.726562 13.75 -15.9375 C 13.09375 -16.144531 12.390625 -16.25 11.640625 -16.25 C 10.878906 -16.25 10.171875 -16.09375 9.515625 -15.78125 C 8.859375 -15.476562 8.285156 -15.066406 7.796875 -14.546875 C 7.304688 -14.035156 6.921875 -13.421875 6.640625 -12.703125 C 6.359375 -11.992188 6.21875 -11.242188 6.21875 -10.453125 C 6.21875 -9.640625 6.359375 -8.882812 6.640625 -8.1875 C 6.921875 -7.488281 7.304688 -6.878906 7.796875 -6.359375 C 8.285156 -5.847656 8.859375 -5.4375 9.515625 -5.125 C 10.171875 -4.8125 10.878906 -4.65625 11.640625 -4.65625 C 13.148438 -4.65625 14.425781 -5.125 15.46875 -6.0625 C 16.519531 -7 17.0625 -8.4375 17.09375 -10.375 Z M 17.09375 -10.375 "/></g></g></g><g fill="#00adef" fill-opacity="1"><g transform="translate(159.322734, 255.350945)"><g/></g></g><g fill="#00adef" fill-opacity="1"><g transform="translate(170.86949, 255.350945)"><g><path d="M 16 -5.796875 C 17.34375 -5.796875 18.65625 -6.101562 19.9375 -6.71875 C 21.226562 -7.332031 22.535156 -8.367188 23.859375 -9.828125 L 27.96875 -5.921875 C 26.320312 -3.796875 24.441406 -2.1875 22.328125 -1.09375 C 20.210938 0 18.035156 0.546875 15.796875 0.546875 C 13.773438 0.546875 11.878906 0.132812 10.109375 -0.6875 C 8.347656 -1.519531 6.816406 -2.632812 5.515625 -4.03125 C 4.210938 -5.425781 3.191406 -7.054688 2.453125 -8.921875 C 1.710938 -10.785156 1.34375 -12.769531 1.34375 -14.875 C 1.34375 -16.96875 1.726562 -18.9375 2.5 -20.78125 C 3.269531 -22.632812 4.3125 -24.257812 5.625 -25.65625 C 6.945312 -27.0625 8.503906 -28.171875 10.296875 -28.984375 C 12.085938 -29.796875 13.988281 -30.203125 16 -30.203125 C 17.875 -30.203125 19.65625 -29.847656 21.34375 -29.140625 C 23.039062 -28.441406 24.703125 -27.28125 26.328125 -25.65625 L 22.640625 -21.171875 C 21.460938 -22.265625 20.347656 -23 19.296875 -23.375 C 18.242188 -23.75 17.144531 -23.9375 16 -23.9375 C 14.851562 -23.9375 13.769531 -23.695312 12.75 -23.21875 C 11.726562 -22.75 10.835938 -22.109375 10.078125 -21.296875 C 9.328125 -20.484375 8.734375 -19.523438 8.296875 -18.421875 C 7.859375 -17.316406 7.640625 -16.132812 7.640625 -14.875 C 7.640625 -13.613281 7.859375 -12.4375 8.296875 -11.34375 C 8.734375 -10.25 9.328125 -9.285156 10.078125 -8.453125 C 10.835938 -7.628906 11.726562 -6.976562 12.75 -6.5 C 13.769531 -6.03125 14.851562 -5.796875 16 -5.796875 Z M 16 -5.796875 "/></g></g></g><g fill="#00adef" fill-opacity="1"><g transform="translate(200.051282, 255.350945)"><g><path d="M 23.6875 -20.828125 L 23.6875 0 L 18.6875 0 L 18.109375 -2.21875 C 17.296875 -1.132812 16.320312 -0.410156 15.1875 -0.046875 C 14.050781 0.316406 12.867188 0.5 11.640625 0.5 C 10.148438 0.5 8.78125 0.210938 7.53125 -0.359375 C 6.289062 -0.929688 5.207031 -1.710938 4.28125 -2.703125 C 3.351562 -3.703125 2.628906 -4.863281 2.109375 -6.1875 C 1.597656 -7.519531 1.34375 -8.941406 1.34375 -10.453125 C 1.34375 -11.960938 1.597656 -13.382812 2.109375 -14.71875 C 2.628906 -16.050781 3.351562 -17.210938 4.28125 -18.203125 C 5.207031 -19.203125 6.289062 -19.988281 7.53125 -20.5625 C 8.78125 -21.132812 10.148438 -21.421875 11.640625 -21.421875 C 12.984375 -21.421875 14.210938 -21.207031 15.328125 -20.78125 C 16.453125 -20.363281 17.378906 -19.695312 18.109375 -18.78125 L 18.6875 -20.828125 Z M 17.890625 -10.375 C 17.890625 -11.46875 17.742188 -12.382812 17.453125 -13.125 C 17.160156 -13.863281 16.769531 -14.460938 16.28125 -14.921875 C 15.789062 -15.390625 15.210938 -15.726562 14.546875 -15.9375 C 13.890625 -16.144531 13.1875 -16.25 12.4375 -16.25 C 11.675781 -16.25 10.96875 -16.09375 10.3125 -15.78125 C 9.65625 -15.476562 9.070312 -15.066406 8.5625 -14.546875 C 8.0625 -14.035156 7.671875 -13.421875 7.390625 -12.703125 C 7.109375 -11.992188 6.96875 -11.242188 6.96875 -10.453125 C 6.96875 -9.640625 7.109375 -8.882812 7.390625 -8.1875 C 7.671875 -7.488281 8.0625 -6.878906 8.5625 -6.359375 C 9.070312 -5.847656 9.65625 -5.4375 10.3125 -5.125 C 10.96875 -4.8125 11.675781 -4.65625 12.4375 -4.65625 C 13.945312 -4.65625 15.222656 -5.125 16.265625 -6.0625 C 17.316406 -7 17.859375 -8.4375 17.890625 -10.375 Z M 17.890625 -10.375 "/></g></g></g><g fill="#00adef" fill-opacity="1"><g transform="translate(225.580108, 255.350945)"><g><path d="M 25.078125 -20.828125 C 25.828125 -20.828125 26.632812 -20.703125 27.5 -20.453125 C 28.375 -20.203125 29.179688 -19.753906 29.921875 -19.109375 C 30.660156 -18.460938 31.269531 -17.578125 31.75 -16.453125 C 32.226562 -15.335938 32.46875 -13.914062 32.46875 -12.1875 L 32.46875 0 L 26.671875 0 L 26.671875 -11.125 C 26.671875 -11.96875 26.578125 -12.679688 26.390625 -13.265625 C 26.210938 -13.859375 25.96875 -14.335938 25.65625 -14.703125 C 25.351562 -15.066406 25 -15.320312 24.59375 -15.46875 C 24.1875 -15.625 23.773438 -15.703125 23.359375 -15.703125 C 22.960938 -15.703125 22.566406 -15.628906 22.171875 -15.484375 C 21.785156 -15.347656 21.4375 -15.113281 21.125 -14.78125 C 20.8125 -14.445312 20.566406 -13.984375 20.390625 -13.390625 C 20.210938 -12.804688 20.125 -12.066406 20.125 -11.171875 L 20.125 0 L 14.328125 0 L 14.328125 -11.125 C 14.328125 -12.832031 14.03125 -14.019531 13.4375 -14.6875 C 12.851562 -15.363281 12 -15.703125 10.875 -15.703125 C 10.0625 -15.703125 9.332031 -15.320312 8.6875 -14.5625 C 8.050781 -13.8125 7.734375 -12.640625 7.734375 -11.046875 L 7.734375 0 L 1.9375 0 L 1.9375 -20.828125 L 6.890625 -20.828125 L 7.734375 -18.90625 C 8.367188 -19.519531 9.113281 -19.992188 9.96875 -20.328125 C 10.820312 -20.660156 11.738281 -20.828125 12.71875 -20.828125 C 13.226562 -20.828125 13.757812 -20.773438 14.3125 -20.671875 C 14.875 -20.578125 15.421875 -20.40625 15.953125 -20.15625 C 16.492188 -19.90625 17.007812 -19.578125 17.5 -19.171875 C 17.988281 -18.765625 18.425781 -18.253906 18.8125 -17.640625 C 19.144531 -18.171875 19.550781 -18.640625 20.03125 -19.046875 C 20.507812 -19.453125 21.023438 -19.785156 21.578125 -20.046875 C 22.140625 -20.316406 22.722656 -20.515625 23.328125 -20.640625 C 23.929688 -20.765625 24.515625 -20.828125 25.078125 -20.828125 Z M 25.078125 -20.828125 "/></g></g></g><g fill="#00adef" fill-opacity="1"><g transform="translate(259.842458, 255.350945)"><g><path d="M 13.9375 -21.421875 C 15.425781 -21.421875 16.800781 -21.132812 18.0625 -20.5625 C 19.320312 -19.988281 20.40625 -19.203125 21.3125 -18.203125 C 22.226562 -17.210938 22.941406 -16.050781 23.453125 -14.71875 C 23.972656 -13.382812 24.234375 -11.960938 24.234375 -10.453125 C 24.234375 -8.941406 23.972656 -7.519531 23.453125 -6.1875 C 22.941406 -4.863281 22.226562 -3.703125 21.3125 -2.703125 C 20.40625 -1.710938 19.320312 -0.929688 18.0625 -0.359375 C 16.800781 0.210938 15.425781 0.5 13.9375 0.5 C 12.738281 0.5 11.5625 0.285156 10.40625 -0.140625 C 9.257812 -0.578125 8.367188 -1.132812 7.734375 -1.8125 L 7.734375 8.3125 L 1.9375 8.3125 L 1.9375 -20.828125 L 6.890625 -20.828125 L 7.734375 -19.40625 C 8.546875 -20.132812 9.453125 -20.648438 10.453125 -20.953125 C 11.460938 -21.265625 12.625 -21.421875 13.9375 -21.421875 Z M 13.1875 -4.65625 C 13.945312 -4.65625 14.65625 -4.8125 15.3125 -5.125 C 15.96875 -5.4375 16.539062 -5.847656 17.03125 -6.359375 C 17.519531 -6.878906 17.910156 -7.488281 18.203125 -8.1875 C 18.492188 -8.882812 18.640625 -9.640625 18.640625 -10.453125 C 18.640625 -11.242188 18.492188 -11.992188 18.203125 -12.703125 C 17.910156 -13.421875 17.519531 -14.035156 17.03125 -14.546875 C 16.539062 -15.066406 15.96875 -15.476562 15.3125 -15.78125 C 14.65625 -16.09375 13.945312 -16.25 13.1875 -16.25 C 12.425781 -16.25 11.71875 -16.144531 11.0625 -15.9375 C 10.40625 -15.726562 9.832031 -15.390625 9.34375 -14.921875 C 8.851562 -14.460938 8.46875 -13.863281 8.1875 -13.125 C 7.90625 -12.382812 7.765625 -11.492188 7.765625 -10.453125 C 7.765625 -9.472656 7.90625 -8.625 8.1875 -7.90625 C 8.46875 -7.195312 8.851562 -6.597656 9.34375 -6.109375 C 9.832031 -5.617188 10.40625 -5.253906 11.0625 -5.015625 C 11.71875 -4.773438 12.425781 -4.65625 13.1875 -4.65625 Z M 13.1875 -4.65625 "/></g></g></g><g fill="#00adef" fill-opacity="1"><g transform="translate(284.657481, 255.350945)"><g><path d="M 15.078125 -20.828125 L 20.875 -20.828125 L 20.875 0 L 15.921875 0 L 15.078125 -1.59375 C 14.398438 -1.113281 13.632812 -0.726562 12.78125 -0.4375 C 11.9375 -0.144531 11.019531 0 10.03125 0 C 9.28125 0 8.421875 -0.109375 7.453125 -0.328125 C 6.484375 -0.554688 5.578125 -0.976562 4.734375 -1.59375 C 3.898438 -2.207031 3.195312 -3.0625 2.625 -4.15625 C 2.050781 -5.25 1.765625 -6.664062 1.765625 -8.40625 L 1.765625 -20.828125 L 7.609375 -20.828125 L 7.609375 -8.609375 C 7.609375 -7.960938 7.710938 -7.414062 7.921875 -6.96875 C 8.128906 -6.519531 8.40625 -6.160156 8.75 -5.890625 C 9.101562 -5.628906 9.503906 -5.4375 9.953125 -5.3125 C 10.398438 -5.1875 10.863281 -5.125 11.34375 -5.125 C 11.707031 -5.125 12.101562 -5.1875 12.53125 -5.3125 C 12.96875 -5.4375 13.375 -5.640625 13.75 -5.921875 C 14.132812 -6.203125 14.453125 -6.566406 14.703125 -7.015625 C 14.953125 -7.460938 15.078125 -7.992188 15.078125 -8.609375 Z M 15.078125 -20.828125 "/></g></g></g><g fill="#00adef" fill-opacity="1"><g transform="translate(307.457063, 255.350945)"><g><path d="M 15.125 -10.921875 C 16.664062 -9.828125 17.4375 -8.273438 17.4375 -6.265625 C 17.4375 -5.335938 17.21875 -4.46875 16.78125 -3.65625 C 16.34375 -2.84375 15.742188 -2.128906 14.984375 -1.515625 C 14.234375 -0.898438 13.351562 -0.414062 12.34375 -0.0625 C 11.34375 0.289062 10.265625 0.46875 9.109375 0.46875 C 8.242188 0.46875 7.394531 0.351562 6.5625 0.125 C 5.738281 -0.09375 4.976562 -0.398438 4.28125 -0.796875 C 3.582031 -1.191406 2.972656 -1.660156 2.453125 -2.203125 C 1.941406 -2.753906 1.554688 -3.363281 1.296875 -4.03125 C 1.941406 -4.34375 2.65625 -4.6875 3.4375 -5.0625 C 4.226562 -5.4375 4.914062 -5.78125 5.5 -6.09375 C 5.75 -5.664062 6.140625 -5.273438 6.671875 -4.921875 C 7.203125 -4.578125 7.929688 -4.40625 8.859375 -4.40625 C 9.816406 -4.40625 10.519531 -4.628906 10.96875 -5.078125 C 11.414062 -5.523438 11.640625 -5.945312 11.640625 -6.34375 C 11.640625 -6.625 11.484375 -6.878906 11.171875 -7.109375 C 10.859375 -7.347656 10.507812 -7.539062 10.125 -7.6875 C 9.5625 -7.90625 9.097656 -8.019531 8.734375 -8.03125 C 8.367188 -8.050781 7.945312 -8.132812 7.46875 -8.28125 C 5.957031 -8.632812 4.800781 -9.113281 4 -9.71875 C 3.207031 -10.320312 2.628906 -10.929688 2.265625 -11.546875 C 1.898438 -12.160156 1.695312 -12.75 1.65625 -13.3125 C 1.613281 -13.875 1.59375 -14.320312 1.59375 -14.65625 C 1.59375 -15.550781 1.785156 -16.40625 2.171875 -17.21875 C 2.566406 -18.03125 3.109375 -18.738281 3.796875 -19.34375 C 4.484375 -19.945312 5.28125 -20.429688 6.1875 -20.796875 C 7.101562 -21.160156 8.078125 -21.34375 9.109375 -21.34375 C 9.984375 -21.34375 10.8125 -21.210938 11.59375 -20.953125 C 12.375 -20.703125 13.085938 -20.351562 13.734375 -19.90625 C 14.378906 -19.457031 14.929688 -18.925781 15.390625 -18.3125 C 15.859375 -17.695312 16.203125 -17.007812 16.421875 -16.25 L 11.921875 -14.734375 C 11.753906 -15.242188 11.410156 -15.648438 10.890625 -15.953125 C 10.378906 -16.265625 9.828125 -16.421875 9.234375 -16.421875 C 8.648438 -16.421875 8.175781 -16.222656 7.8125 -15.828125 C 7.445312 -15.441406 7.265625 -15.050781 7.265625 -14.65625 C 7.265625 -14.175781 7.4375 -13.800781 7.78125 -13.53125 C 8.132812 -13.269531 8.523438 -13.085938 8.953125 -12.984375 C 9.253906 -12.921875 9.550781 -12.867188 9.84375 -12.828125 C 10.144531 -12.785156 10.429688 -12.738281 10.703125 -12.6875 C 11.691406 -12.457031 12.539062 -12.203125 13.25 -11.921875 C 13.96875 -11.648438 14.59375 -11.316406 15.125 -10.921875 Z M 15.125 -10.921875 "/></g></g></g></svg>