<svg xmlns="http://www.w3.org/2000/svg" xmlns:xlink="http://www.w3.org/1999/xlink" width="55" zoomAndPan="magnify" viewBox="0 0 30 30.000001" height="55" preserveAspectRatio="xMidYMid meet" fill="#26e8a0" version="1.0">
            <path d="M 23.648438 19.910156 C 22.667969 20.183594 22.039062 20.992188 22.039062 21.988281 C 22.039062 22.546875 22.246094 23.054688 22.632812 23.449219 C 23.078125 23.90625 23.554688 24.097656 24.242188 24.097656 C 24.761719 24.097656 25.125 23.996094 25.53125 23.726562 C 25.894531 23.484375 26.242188 22.992188 26.378906 22.527344 L 26.402344 22.433594 L 25.769531 22.433594 C 25.386719 22.433594 25.128906 22.449219 25.128906 22.476562 C 25.128906 22.5625 24.851562 22.832031 24.683594 22.902344 C 24.316406 23.074219 23.769531 22.980469 23.511719 22.703125 C 23.140625 22.300781 23.179688 21.511719 23.59375 21.167969 C 24.019531 20.816406 24.734375 20.902344 25.054688 21.347656 L 25.1875 21.542969 L 26.398438 21.542969 L 26.375 21.425781 C 26.363281 21.363281 26.285156 21.175781 26.207031 21.011719 C 25.960938 20.492188 25.429688 20.070312 24.828125 19.914062 C 24.554688 19.835938 23.910156 19.835938 23.648438 19.910156 Z M 23.648438 19.910156 " fill-opacity="1" fill-rule="nonzero" />
            <path d="M 3.871094 21.96875 L 3.878906 24 L 5.109375 24 L 5.117188 23.226562 L 5.128906 22.453125 L 5.839844 22.441406 L 6.546875 22.433594 L 6.546875 24 L 7.816406 24 L 7.816406 19.933594 L 6.546875 19.933594 L 6.546875 21.375 L 5.839844 21.367188 L 5.128906 21.351562 L 5.117188 20.640625 L 5.109375 19.933594 L 3.859375 19.933594 Z M 3.871094 21.96875 " fill-opacity="1" fill-rule="nonzero" />
            <path d="M 9.511719 21.96875 L 9.511719 24 L 12.769531 24 L 12.769531 23.027344 L 10.738281 23.027344 L 10.738281 22.433594 L 12.769531 22.433594 L 12.769531 21.460938 L 10.738281 21.460938 L 10.738281 20.867188 L 12.769531 20.867188 L 12.769531 19.933594 L 9.511719 19.933594 Z M 9.511719 21.96875 " fill-opacity="1" fill-rule="nonzero" />
            <path d="M 14.039062 20.441406 L 14.039062 20.949219 L 15.394531 20.949219 L 15.394531 24 L 16.621094 24 L 16.628906 22.484375 L 16.644531 20.972656 L 17.3125 20.960938 L 17.976562 20.945312 L 17.976562 19.933594 L 14.039062 19.933594 Z M 14.039062 20.441406 " fill-opacity="1" fill-rule="nonzero" />
            <path d="M 19.414062 21.96875 L 19.414062 24 L 20.644531 24 L 20.644531 19.933594 L 19.414062 19.933594 Z M 19.414062 21.96875 " fill-opacity="1" fill-rule="nonzero" />
            <path d="M 9.699219 3.289062 C 8.957031 3.460938 8.371094 4.023438 8.152344 4.769531 C 8.070312 5.042969 8.066406 5.554688 8.148438 5.859375 C 8.328125 6.550781 8.878906 7.109375 9.589844 7.332031 C 9.894531 7.425781 10.402344 7.417969 10.742188 7.3125 C 12.234375 6.851562 12.707031 4.953125 11.597656 3.847656 C 11.109375 3.359375 10.363281 3.140625 9.699219 3.289062 Z M 10.554688 4.492188 C 10.894531 4.667969 11.109375 5.066406 11.0625 5.425781 C 10.996094 5.914062 10.628906 6.238281 10.152344 6.238281 C 9.628906 6.238281 9.230469 5.847656 9.226562 5.335938 C 9.222656 4.636719 9.941406 4.175781 10.554688 4.492188 Z M 10.554688 4.492188 " fill-opacity="1" fill-rule="nonzero" />
            <path d="M 18.503906 5.328125 L 18.503906 7.226562 L 19.761719 7.226562 L 19.761719 3.429688 L 18.503906 3.429688 Z M 18.503906 5.328125 " fill-opacity="1" fill-rule="nonzero" />
            <path d="M 21.058594 5.328125 L 21.058594 7.226562 L 22.316406 7.226562 L 22.316406 3.429688 L 21.058594 3.429688 Z M 21.058594 5.328125 " fill-opacity="1" fill-rule="nonzero" />
            <path d="M 20.058594 8.371094 C 19.765625 8.421875 19.535156 8.523438 19.238281 8.71875 C 18.667969 9.09375 18.347656 9.710938 18.347656 10.425781 C 18.347656 11.449219 19.019531 12.265625 20.03125 12.472656 C 20.636719 12.597656 21.304688 12.410156 21.777344 11.96875 C 22.0625 11.707031 22.210938 11.492188 22.34375 11.152344 C 22.433594 10.917969 22.449219 10.824219 22.449219 10.425781 C 22.449219 10.015625 22.4375 9.945312 22.339844 9.695312 C 22.277344 9.542969 22.175781 9.347656 22.117188 9.257812 C 21.972656 9.042969 21.601562 8.703125 21.402344 8.601562 C 20.980469 8.386719 20.464844 8.300781 20.058594 8.371094 Z M 20.660156 9.539062 C 21.316406 9.734375 21.539062 10.53125 21.085938 11.046875 C 20.742188 11.445312 20.128906 11.464844 19.753906 11.082031 C 19.242188 10.570312 19.5 9.691406 20.214844 9.515625 C 20.394531 9.472656 20.4375 9.476562 20.660156 9.539062 Z M 20.660156 9.539062 " fill-opacity="1" fill-rule="nonzero" />
            <path d="M 8.246094 9.164062 L 8.246094 9.796875 L 10.144531 9.785156 L 12.039062 9.773438 L 12.0625 8.53125 L 8.246094 8.53125 Z M 8.246094 9.164062 " fill-opacity="1" fill-rule="nonzero" />
            <path d="M 13.394531 10.425781 L 13.394531 12.324219 L 14.652344 12.324219 L 14.652344 8.53125 L 13.394531 8.53125 Z M 13.394531 10.425781 " fill-opacity="1" fill-rule="nonzero" />
            <path d="M 15.910156 10.425781 L 15.910156 12.324219 L 17.167969 12.324219 L 17.167969 8.53125 L 15.910156 8.53125 Z M 15.910156 10.425781 " fill-opacity="1" fill-rule="nonzero" />
            <path d="M 8.246094 11.691406 L 8.246094 12.324219 L 12.0625 12.324219 L 12.050781 11.699219 L 12.039062 11.078125 L 10.144531 11.066406 L 8.246094 11.058594 Z M 8.246094 11.691406 " fill-opacity="1" fill-rule="nonzero" />
            <path d="M 8.246094 15.527344 L 8.246094 17.425781 L 9.503906 17.425781 L 9.503906 13.628906 L 8.246094 13.628906 Z M 8.246094 15.527344 " fill-opacity="1" fill-rule="nonzero" />
            <path d="M 10.800781 15.527344 L 10.800781 17.425781 L 12.058594 17.425781 L 12.058594 13.628906 L 10.800781 13.628906 Z M 10.800781 15.527344 " fill-opacity="1" fill-rule="nonzero" />
            <path d="M 18.503906 14.261719 L 18.503906 14.894531 L 20.402344 14.886719 L 22.296875 14.875 L 22.296875 13.648438 L 20.402344 13.636719 L 18.503906 13.628906 Z M 18.503906 14.261719 " fill-opacity="1" fill-rule="nonzero" />
            <path d="M 18.53125 16.1875 C 18.515625 16.199219 18.503906 16.484375 18.503906 16.820312 L 18.503906 17.425781 L 22.320312 17.425781 L 22.308594 16.800781 L 22.296875 16.179688 L 20.425781 16.167969 C 19.398438 16.164062 18.542969 16.171875 18.53125 16.1875 Z M 18.53125 16.1875 " fill-opacity="1" fill-rule="nonzero" />
          </svg>