<svg xmlns="http://www.w3.org/2000/svg" xmlns:xlink="http://www.w3.org/1999/xlink" width="40" zoomAndPan="magnify" viewBox="0 0 30 30.000001" height="40" preserveAspectRatio="xMidYMid meet" version="1.0"><path fill="#26e8a0" d="M 24.679688 20.300781 C 23.695312 20.578125 23.070312 21.386719 23.070312 22.382812 C 23.070312 22.941406 23.277344 23.449219 23.664062 23.84375 C 24.105469 24.300781 24.585938 24.492188 25.269531 24.492188 C 25.792969 24.492188 26.15625 24.390625 26.5625 24.117188 C 26.925781 23.878906 27.273438 23.386719 27.410156 22.921875 L 27.433594 22.828125 L 26.800781 22.828125 C 26.417969 22.828125 26.160156 22.84375 26.160156 22.871094 C 26.160156 22.953125 25.878906 23.226562 25.714844 23.296875 C 25.347656 23.464844 24.800781 23.375 24.542969 23.097656 C 24.171875 22.695312 24.207031 21.902344 24.625 21.558594 C 25.050781 21.207031 25.765625 21.296875 26.082031 21.742188 L 26.21875 21.9375 L 27.429688 21.9375 L 27.40625 21.820312 C 27.390625 21.753906 27.316406 21.570312 27.234375 21.402344 C 26.988281 20.886719 26.460938 20.464844 25.859375 20.304688 C 25.585938 20.230469 24.941406 20.230469 24.679688 20.300781 Z M 24.679688 20.300781 " fill-opacity="1" fill-rule="nonzero"/><path fill="#26e8a0" d="M 4.902344 22.359375 L 4.910156 24.394531 L 6.136719 24.394531 L 6.144531 23.617188 L 6.160156 22.847656 L 6.871094 22.835938 L 7.578125 22.828125 L 7.578125 24.394531 L 8.847656 24.394531 L 8.847656 20.328125 L 7.578125 20.328125 L 7.578125 21.769531 L 6.871094 21.757812 L 6.160156 21.746094 L 6.144531 21.035156 L 6.136719 20.328125 L 4.890625 20.328125 Z M 4.902344 22.359375 " fill-opacity="1" fill-rule="nonzero"/><path fill="#26e8a0" d="M 10.539062 22.359375 L 10.539062 24.394531 L 13.800781 24.394531 L 13.800781 23.421875 L 11.765625 23.421875 L 11.765625 22.828125 L 13.800781 22.828125 L 13.800781 21.851562 L 11.765625 21.851562 L 11.765625 21.257812 L 13.800781 21.257812 L 13.800781 20.328125 L 10.539062 20.328125 Z M 10.539062 22.359375 " fill-opacity="1" fill-rule="nonzero"/><path fill="#26e8a0" d="M 15.070312 20.835938 L 15.070312 21.34375 L 16.425781 21.34375 L 16.425781 24.394531 L 17.652344 24.394531 L 17.660156 22.878906 L 17.671875 21.367188 L 18.339844 21.351562 L 19.007812 21.339844 L 19.007812 20.328125 L 15.070312 20.328125 Z M 15.070312 20.835938 " fill-opacity="1" fill-rule="nonzero"/><path fill="#26e8a0" d="M 20.445312 22.359375 L 20.445312 24.394531 L 21.671875 24.394531 L 21.671875 20.328125 L 20.445312 20.328125 Z M 20.445312 22.359375 " fill-opacity="1" fill-rule="nonzero"/><path fill="#26e8a0" d="M 9.894531 3.105469 C 9.152344 3.273438 8.566406 3.835938 8.347656 4.582031 C 8.269531 4.855469 8.265625 5.371094 8.34375 5.671875 C 8.523438 6.363281 9.074219 6.921875 9.785156 7.144531 C 10.09375 7.238281 10.597656 7.230469 10.9375 7.125 C 12.429688 6.667969 12.902344 4.765625 11.792969 3.660156 C 11.304688 3.171875 10.558594 2.953125 9.894531 3.105469 Z M 10.753906 4.304688 C 11.089844 4.480469 11.304688 4.878906 11.257812 5.238281 C 11.191406 5.726562 10.828125 6.050781 10.347656 6.050781 C 9.824219 6.050781 9.425781 5.660156 9.421875 5.148438 C 9.417969 4.449219 10.140625 3.988281 10.753906 4.304688 Z M 10.753906 4.304688 " fill-opacity="1" fill-rule="nonzero"/><path fill="#26e8a0" d="M 18.699219 5.140625 L 18.699219 7.039062 L 19.957031 7.039062 L 19.957031 3.242188 L 18.699219 3.242188 Z M 18.699219 5.140625 " fill-opacity="1" fill-rule="nonzero"/><path fill="#26e8a0" d="M 21.253906 5.140625 L 21.253906 7.039062 L 22.511719 7.039062 L 22.511719 3.242188 L 21.253906 3.242188 Z M 21.253906 5.140625 " fill-opacity="1" fill-rule="nonzero"/><path fill="#26e8a0" d="M 20.253906 8.183594 C 19.960938 8.234375 19.730469 8.335938 19.433594 8.53125 C 18.867188 8.90625 18.542969 9.523438 18.542969 10.242188 C 18.542969 11.261719 19.214844 12.078125 20.226562 12.285156 C 20.835938 12.410156 21.5 12.222656 21.972656 11.78125 C 22.257812 11.519531 22.40625 11.304688 22.539062 10.964844 C 22.632812 10.730469 22.648438 10.636719 22.648438 10.242188 C 22.648438 9.828125 22.636719 9.757812 22.535156 9.507812 C 22.472656 9.355469 22.371094 9.160156 22.3125 9.070312 C 22.167969 8.855469 21.796875 8.515625 21.597656 8.414062 C 21.175781 8.199219 20.660156 8.113281 20.253906 8.183594 Z M 20.855469 9.351562 C 21.511719 9.546875 21.734375 10.34375 21.28125 10.859375 C 20.9375 11.257812 20.324219 11.277344 19.949219 10.898438 C 19.4375 10.382812 19.695312 9.503906 20.410156 9.328125 C 20.589844 9.285156 20.632812 9.289062 20.855469 9.351562 Z M 20.855469 9.351562 " fill-opacity="1" fill-rule="nonzero"/><path fill="#26e8a0" d="M 8.441406 8.976562 L 8.441406 9.609375 L 10.339844 9.601562 L 12.234375 9.589844 L 12.246094 8.964844 L 12.257812 8.34375 L 8.441406 8.34375 Z M 8.441406 8.976562 " fill-opacity="1" fill-rule="nonzero"/><path fill="#26e8a0" d="M 13.589844 10.242188 L 13.589844 12.136719 L 14.847656 12.136719 L 14.847656 8.34375 L 13.589844 8.34375 Z M 13.589844 10.242188 " fill-opacity="1" fill-rule="nonzero"/><path fill="#26e8a0" d="M 16.105469 10.242188 L 16.105469 12.136719 L 17.363281 12.136719 L 17.363281 8.34375 L 16.105469 8.34375 Z M 16.105469 10.242188 " fill-opacity="1" fill-rule="nonzero"/><path fill="#26e8a0" d="M 8.441406 11.503906 L 8.441406 12.136719 L 12.257812 12.136719 L 12.246094 11.511719 L 12.234375 10.894531 L 10.339844 10.882812 L 8.441406 10.871094 Z M 8.441406 11.503906 " fill-opacity="1" fill-rule="nonzero"/><path fill="#26e8a0" d="M 8.441406 15.339844 L 8.441406 17.238281 L 9.699219 17.238281 L 9.699219 13.441406 L 8.441406 13.441406 Z M 8.441406 15.339844 " fill-opacity="1" fill-rule="nonzero"/><path fill="#26e8a0" d="M 10.996094 15.339844 L 10.996094 17.238281 L 12.253906 17.238281 L 12.253906 13.441406 L 10.996094 13.441406 Z M 10.996094 15.339844 " fill-opacity="1" fill-rule="nonzero"/><path fill="#26e8a0" d="M 18.699219 14.074219 L 18.699219 14.707031 L 20.597656 14.699219 L 22.492188 14.6875 L 22.492188 13.460938 L 20.597656 13.449219 L 18.699219 13.441406 Z M 18.699219 14.074219 " fill-opacity="1" fill-rule="nonzero"/><path fill="#26e8a0" d="M 18.726562 16 C 18.710938 16.011719 18.699219 16.296875 18.699219 16.632812 L 18.699219 17.238281 L 22.515625 17.238281 L 22.503906 16.613281 L 22.492188 15.992188 L 20.621094 15.980469 C 19.597656 15.976562 18.738281 15.984375 18.726562 16 Z M 18.726562 16 " fill-opacity="1" fill-rule="nonzero"/></svg>