<svg xmlns="http://www.w3.org/2000/svg" xmlns:xlink="http://www.w3.org/1999/xlink" width="40" zoomAndPan="magnify" viewBox="0 0 30 30.000001" height="40" preserveAspectRatio="xMidYMid meet" version="1.0"><defs><clipPath id="id1"><path d="M 8 1.730469 L 17 1.730469 L 17 15 L 8 15 Z M 8 1.730469 " clip-rule="nonzero"/></clipPath><clipPath id="id2"><path d="M 1.105469 16 L 28.683594 16 L 28.683594 27.136719 L 1.105469 27.136719 Z M 1.105469 16 " clip-rule="nonzero"/></clipPath></defs><g clip-path="url(#id1)"><path fill="#005793" d="M 11.074219 1.730469 L 11.074219 9.316406 L 8.636719 9.316406 L 12.535156 14.519531 L 16.429688 9.316406 L 13.996094 9.316406 L 13.996094 1.730469 Z M 12.046875 2.707031 L 13.019531 2.707031 L 13.019531 10.292969 L 14.480469 10.292969 L 12.535156 12.890625 L 10.585938 10.292969 L 12.046875 10.292969 Z M 12.046875 2.707031 " fill-opacity="1" fill-rule="nonzero"/></g><g clip-path="url(#id2)"><path fill="#005793" d="M 11.390625 16.359375 C 10.585938 16.359375 9.929688 17.015625 9.929688 17.824219 C 9.929688 18.628906 10.585938 19.285156 11.390625 19.285156 L 13.910156 19.285156 C 14.179688 19.285156 14.398438 19.507812 14.394531 19.773438 C 14.394531 20.042969 14.179688 20.257812 13.910156 20.261719 L 8.902344 20.261719 L 3.523438 18.085938 C 2.707031 17.753906 1.777344 18.148438 1.449219 18.964844 C 1.148438 19.699219 1.4375 20.546875 2.128906 20.945312 L 12.269531 26.820312 C 12.675781 27.054688 13.148438 27.140625 13.609375 27.054688 L 22.761719 25.367188 L 22.761719 26.113281 L 28.605469 26.113281 L 28.605469 17.335938 L 22.761719 17.335938 L 22.761719 17.914062 L 19.652344 16.359375 Z M 11.355469 17.335938 C 11.363281 17.335938 11.371094 17.335938 11.378906 17.335938 C 11.382812 17.335938 11.386719 17.335938 11.394531 17.335938 L 19.425781 17.335938 L 22.761719 19.003906 L 22.761719 24.375 L 13.433594 26.09375 C 13.203125 26.136719 12.960938 26.097656 12.757812 25.976562 L 2.613281 20.097656 C 2.320312 19.929688 2.21875 19.550781 2.386719 19.253906 C 2.542969 18.984375 2.871094 18.871094 3.15625 18.988281 L 8.535156 21.164062 C 8.652344 21.210938 8.777344 21.234375 8.902344 21.234375 L 13.910156 21.234375 C 14.71875 21.234375 15.371094 20.582031 15.371094 19.773438 C 15.371094 18.964844 14.71875 18.308594 13.910156 18.308594 L 11.390625 18.308594 C 11.125 18.320312 10.898438 18.109375 10.886719 17.839844 C 10.878906 17.570312 11.085938 17.34375 11.355469 17.335938 Z M 23.734375 18.308594 L 27.632812 18.308594 L 27.632812 25.136719 L 23.734375 25.136719 Z M 23.734375 18.308594 " fill-opacity="1" fill-rule="nonzero"/></g><path fill="#005793" d="M 27.109375 20.050781 C 27.109375 19.496094 26.660156 19.042969 26.101562 19.042969 C 25.546875 19.042969 25.09375 19.492188 25.09375 20.050781 C 25.089844 20.609375 25.542969 21.0625 26.101562 21.0625 C 26.65625 21.0625 27.109375 20.613281 27.109375 20.054688 C 27.109375 20.054688 27.109375 20.054688 27.109375 20.050781 Z M 27.109375 20.050781 " fill-opacity="1" fill-rule="nonzero"/></svg>