<svg xmlns="http://www.w3.org/2000/svg" xmlns:xlink="http://www.w3.org/1999/xlink" width="40" zoomAndPan="magnify" viewBox="0 0 30 30.000001" height="40" preserveAspectRatio="xMidYMid meet" version="1.0"><defs><clipPath id="id1"><path d="M 1.472656 4.269531 L 28.328125 4.269531 L 28.328125 24.59375 L 1.472656 24.59375 Z M 1.472656 4.269531 " clip-rule="nonzero"/></clipPath><clipPath id="id2"><path d="M 7 24 L 8 24 L 8 24.59375 L 7 24.59375 Z M 7 24 " clip-rule="nonzero"/></clipPath></defs><g clip-path="url(#id1)"><path fill="#26e8a0" d="M 4.769531 19.179688 C 4.765625 19.164062 4.761719 19.148438 4.761719 19.128906 C 4.753906 18.730469 4.734375 18.332031 4.703125 17.9375 C 4.390625 18.34375 4.089844 18.773438 3.835938 19.21875 C 3.890625 19.21875 3.949219 19.242188 3.988281 19.296875 C 4.195312 19.5625 4.402344 19.828125 4.621094 20.078125 C 4.664062 19.777344 4.714844 19.476562 4.769531 19.179688 Z M 6.34375 13.617188 C 6.34375 13.59375 6.34375 13.570312 6.339844 13.546875 C 5.78125 13.546875 5.21875 13.527344 4.65625 13.492188 C 4.644531 13.515625 4.636719 13.539062 4.632812 13.5625 C 5.195312 13.570312 5.765625 13.59375 6.34375 13.617188 Z M 6.457031 16.300781 C 6.414062 15.535156 6.371094 14.769531 6.351562 14.007812 C 6.085938 13.996094 5.824219 13.984375 5.5625 13.976562 C 5.59375 14.117188 5.625 14.257812 5.640625 14.402344 C 5.660156 14.402344 5.671875 14.398438 5.691406 14.398438 C 5.941406 14.394531 5.941406 14.789062 5.691406 14.789062 C 5.632812 14.789062 5.59375 14.792969 5.542969 14.816406 C 5.445312 14.855469 5.324219 14.769531 5.300781 14.679688 C 5.296875 14.664062 5.296875 14.648438 5.296875 14.632812 C 5.277344 14.605469 5.261719 14.570312 5.261719 14.527344 C 5.253906 14.339844 5.199219 14.160156 5.167969 13.980469 C 5.167969 13.972656 5.167969 13.96875 5.167969 13.964844 C 5.125 13.960938 5.082031 13.960938 5.039062 13.960938 C 5.042969 13.980469 5.046875 13.992188 5.042969 14.011719 C 4.886719 15.015625 4.941406 16.023438 5.023438 17.03125 C 5.378906 16.898438 5.667969 16.644531 5.972656 16.421875 C 5.976562 16.304688 6.066406 16.195312 6.207031 16.238281 C 6.289062 16.269531 6.371094 16.285156 6.457031 16.300781 Z M 6.617188 18.894531 C 6.585938 18.496094 6.554688 18.105469 6.53125 17.730469 C 6.515625 17.386719 6.496094 17.042969 6.476562 16.699219 C 6.417969 16.691406 6.359375 16.679688 6.296875 16.667969 C 5.886719 16.941406 5.535156 17.285156 5.054688 17.433594 C 5.089844 17.871094 5.125 18.308594 5.140625 18.746094 C 5.214844 18.753906 5.289062 18.761719 5.367188 18.769531 C 5.363281 18.746094 5.363281 18.71875 5.367188 18.695312 C 5.378906 18.628906 5.386719 18.527344 5.390625 18.433594 C 5.339844 18.386719 5.308594 18.3125 5.332031 18.246094 C 5.414062 18.03125 5.585938 17.960938 5.808594 18.007812 C 6.027344 18.054688 5.96875 18.355469 5.78125 18.386719 C 5.777344 18.523438 5.769531 18.660156 5.742188 18.796875 C 5.742188 18.800781 5.738281 18.804688 5.738281 18.808594 C 6.03125 18.84375 6.324219 18.871094 6.617188 18.894531 Z M 6.523438 21.84375 C 6.683594 21.164062 6.699219 20.425781 6.664062 19.691406 C 6.128906 19.632812 5.609375 19.523438 5.132812 19.355469 C 5.066406 19.71875 5.011719 20.085938 4.972656 20.453125 C 5.085938 20.570312 5.203125 20.683594 5.328125 20.792969 C 5.726562 21.144531 6.164062 21.449219 6.523438 21.84375 Z M 6.773438 12.324219 C 6.828125 12.21875 6.820312 12.097656 6.789062 11.984375 C 6.65625 11.976562 6.527344 11.964844 6.398438 11.960938 C 6.429688 12.097656 6.457031 12.238281 6.445312 12.382812 C 6.566406 12.425781 6.710938 12.449219 6.773438 12.324219 Z M 7.15625 7.480469 C 7.15625 7.371094 7.160156 7.242188 7.152344 7.113281 C 7.066406 7.113281 6.980469 7.113281 6.898438 7.113281 C 6.058594 7.105469 4.683594 6.972656 3.964844 7.5625 C 4.839844 8.085938 5.898438 7.972656 6.894531 7.960938 C 6.976562 7.960938 7.0625 7.957031 7.144531 7.957031 C 7.148438 7.796875 7.15625 7.636719 7.15625 7.480469 Z M 7.265625 21.414062 C 7.269531 20.867188 7.234375 20.320312 7.136719 19.78125 C 7.132812 19.765625 7.136719 19.75 7.136719 19.730469 C 7.105469 19.730469 7.070312 19.730469 7.035156 19.726562 C 7.070312 20.453125 7.070312 21.1875 6.914062 21.878906 C 6.929688 21.878906 6.945312 21.878906 6.960938 21.875 C 7.0625 21.722656 7.164062 21.570312 7.265625 21.414062 Z M 7.636719 20.859375 C 7.894531 20.480469 8.148438 20.097656 8.390625 19.707031 C 8.109375 19.734375 7.816406 19.75 7.523438 19.746094 C 7.585938 20.117188 7.621094 20.488281 7.636719 20.859375 Z M 8.839844 18.875 C 8.601562 18.464844 8.351562 18.0625 8.089844 17.660156 C 8.070312 17.632812 8.0625 17.601562 8.0625 17.574219 C 7.777344 17.273438 7.4375 17.035156 7.164062 16.726562 C 7.066406 16.726562 6.96875 16.726562 6.871094 16.726562 C 6.898438 17.25 6.929688 17.777344 6.953125 18.304688 C 6.960938 18.507812 6.972656 18.714844 6.988281 18.921875 C 7.605469 18.960938 8.222656 18.960938 8.839844 18.875 Z M 6.730469 13.632812 C 8.140625 13.695312 9.566406 13.730469 10.921875 13.457031 C 9.527344 13.472656 8.125 13.542969 6.730469 13.546875 C 6.730469 13.578125 6.730469 13.605469 6.730469 13.632812 Z M 9.238281 17.902344 C 9.351562 16.320312 10.074219 14.824219 11.203125 13.796875 C 9.761719 14.121094 8.242188 14.085938 6.742188 14.023438 C 6.765625 14.796875 6.808594 15.5625 6.851562 16.335938 C 6.945312 16.335938 7.039062 16.335938 7.132812 16.335938 C 7.207031 16.300781 7.300781 16.304688 7.371094 16.371094 C 7.390625 16.386719 7.410156 16.40625 7.421875 16.429688 C 7.691406 16.769531 8.070312 17.007812 8.363281 17.324219 C 8.402344 17.363281 8.414062 17.410156 8.414062 17.449219 C 8.417969 17.457031 8.421875 17.457031 8.425781 17.464844 C 8.707031 17.894531 8.972656 18.324219 9.230469 18.769531 C 9.238281 18.777344 9.246094 18.789062 9.253906 18.804688 C 9.222656 18.511719 9.214844 18.210938 9.238281 17.902344 Z M 10.210938 7.566406 C 10.265625 7.554688 10.316406 7.539062 10.371094 7.527344 C 9.535156 7.15625 8.492188 7.121094 7.554688 7.113281 C 7.578125 7.386719 7.558594 7.675781 7.539062 7.941406 C 8.421875 7.90625 9.289062 7.808594 10.148438 7.601562 C 10.167969 7.585938 10.1875 7.574219 10.210938 7.566406 Z M 12.203125 13.078125 C 12.5625 12.875 12.949219 12.714844 13.355469 12.605469 C 12.046875 12.242188 10.625 12.261719 9.292969 12.527344 C 9.597656 12.675781 10.03125 12.675781 10.324219 12.730469 C 10.90625 12.832031 11.476562 12.925781 12.0625 13 C 12.125 13.003906 12.171875 13.035156 12.203125 13.078125 Z M 13.628906 12.273438 C 13.628906 12.226562 13.628906 12.183594 13.628906 12.140625 C 12.828125 12.03125 11.976562 11.875 11.144531 11.890625 C 10.375 11.902344 9.601562 11.996094 8.835938 12.070312 C 8.839844 12.121094 8.847656 12.171875 8.855469 12.226562 C 10.402344 11.863281 12.027344 11.808594 13.628906 12.273438 Z M 13.628906 10.125 C 13.628906 10.117188 13.671875 10.113281 13.671875 10.105469 C 13.5625 10.132812 13.488281 10.160156 13.378906 10.1875 C 13.449219 10.316406 13.507812 10.453125 13.570312 10.589844 C 13.625 10.558594 13.644531 10.527344 13.695312 10.492188 C 13.679688 10.464844 13.628906 10.433594 13.628906 10.390625 C 13.628906 10.304688 13.628906 10.214844 13.628906 10.125 Z M 14.199219 11.097656 C 14.359375 11.078125 14.410156 10.726562 14.242188 10.695312 C 14.171875 10.761719 14.125 10.855469 14.101562 10.945312 C 14.074219 11.054688 14.074219 11.113281 14.199219 11.097656 Z M 14.273438 10.277344 C 14.273438 10.253906 14.273438 10.230469 14.273438 10.207031 C 14.257812 10.203125 14.246094 10.203125 14.234375 10.195312 C 14.1875 10.160156 14.140625 10.132812 14.089844 10.105469 C 14.089844 10.113281 14.09375 10.117188 14.09375 10.125 C 14.09375 10.1875 14.09375 10.253906 14.09375 10.3125 C 14.105469 10.304688 14.121094 10.296875 14.132812 10.289062 C 14.183594 10.265625 14.230469 10.265625 14.273438 10.277344 Z M 14.535156 9.914062 C 14.5625 9.789062 14.59375 9.667969 14.640625 9.550781 C 12.90625 8.710938 11.019531 8.863281 9.175781 9.199219 C 9.179688 9.21875 9.1875 9.238281 9.1875 9.257812 C 9.179688 10.066406 9.09375 10.871094 8.953125 11.667969 C 9.765625 11.582031 10.585938 11.460938 11.398438 11.503906 C 12.183594 11.542969 12.957031 11.667969 13.738281 11.765625 C 13.777344 11.769531 13.816406 11.789062 13.84375 11.8125 C 13.867188 11.816406 13.898438 11.820312 13.917969 11.832031 C 13.933594 11.820312 13.972656 11.808594 13.992188 11.804688 C 13.988281 11.792969 14.03125 11.777344 14.03125 11.757812 C 14.03125 11.652344 14.03125 11.542969 14.03125 11.433594 C 13.832031 11.351562 13.730469 11.1875 13.75 10.980469 C 13.75 10.972656 13.703125 10.964844 13.703125 10.957031 C 13.65625 10.976562 13.605469 11 13.550781 11.015625 C 13.453125 11.039062 13.378906 10.996094 13.339844 10.929688 C 13.308594 10.914062 13.277344 10.890625 13.261719 10.859375 C 13.164062 10.628906 13.066406 10.398438 12.929688 10.191406 C 12.875 10.105469 12.898438 10.023438 12.953125 9.96875 C 12.972656 9.894531 13.03125 9.832031 13.128906 9.828125 C 13.332031 9.824219 13.515625 9.738281 13.710938 9.703125 C 13.730469 9.703125 13.742188 9.703125 13.757812 9.703125 C 13.800781 9.652344 13.867188 9.621094 13.949219 9.636719 C 14.125 9.675781 14.289062 9.75 14.433594 9.859375 C 14.449219 9.871094 14.464844 9.886719 14.480469 9.90625 C 14.5 9.90625 14.519531 9.910156 14.535156 9.914062 Z M 14.632812 12.433594 C 14.632812 12.367188 14.632812 12.296875 14.632812 12.230469 C 14.632812 12.230469 14.605469 12.230469 14.601562 12.230469 C 14.554688 12.203125 14.503906 12.164062 14.492188 12.121094 C 14.347656 12.128906 14.214844 12.152344 14.070312 12.179688 C 14.050781 12.183594 14.03125 12.183594 14.03125 12.183594 C 14.03125 12.242188 14.03125 12.300781 14.03125 12.359375 C 14.03125 12.414062 14.023438 12.453125 13.996094 12.484375 C 14.199219 12.453125 14.433594 12.4375 14.632812 12.433594 Z M 14.644531 9.125 C 14.648438 9.089844 14.652344 9.054688 14.660156 9.019531 C 13.8125 8.449219 12.753906 8.410156 11.761719 8.417969 C 11.167969 8.425781 10.570312 8.425781 9.992188 8.585938 C 9.703125 8.664062 9.425781 8.726562 9.132812 8.746094 C 9.125 8.769531 9.117188 8.792969 9.113281 8.816406 C 10.988281 8.476562 12.882812 8.339844 14.644531 9.125 Z M 15.433594 9.773438 C 15.433594 9.710938 15.433594 9.625 15.433594 9.539062 C 15.421875 9.535156 15.414062 9.527344 15.402344 9.519531 C 15.308594 9.613281 15.117188 9.613281 15.082031 9.445312 C 15.0625 9.367188 15.054688 9.273438 15.03125 9.195312 C 15.027344 9.242188 15.027344 9.300781 15.027344 9.390625 C 15.027344 9.394531 15.027344 9.394531 15.027344 9.394531 C 15.027344 9.425781 15.023438 9.460938 15.007812 9.488281 C 15.035156 9.53125 15.046875 9.582031 15.023438 9.644531 C 14.777344 10.242188 14.859375 10.992188 14.863281 11.625 C 14.863281 11.714844 14.8125 11.769531 14.753906 11.796875 C 14.769531 11.8125 14.785156 11.832031 14.804688 11.855469 C 14.820312 11.875 14.835938 11.902344 14.84375 11.925781 C 14.863281 11.929688 14.878906 11.933594 14.902344 11.929688 C 14.914062 11.929688 14.925781 11.917969 14.9375 11.898438 C 14.910156 11.851562 14.898438 11.792969 14.914062 11.742188 C 14.921875 11.707031 14.9375 11.683594 14.953125 11.664062 C 14.945312 11.589844 14.929688 11.515625 14.910156 11.445312 C 14.890625 11.359375 14.921875 11.296875 14.972656 11.253906 C 14.972656 11.246094 14.972656 11.238281 14.972656 11.230469 C 14.863281 11.015625 14.828125 10.753906 14.949219 10.542969 C 14.980469 10.488281 15.011719 10.445312 15.054688 10.40625 C 15.054688 10.402344 15.03125 10.398438 15.03125 10.390625 C 15.03125 10.269531 15.03125 10.148438 15.03125 10.027344 C 15.03125 10.015625 15.054688 10.003906 15.058594 9.992188 C 15.050781 9.910156 15.109375 9.828125 15.214844 9.804688 C 15.285156 9.789062 15.359375 9.78125 15.433594 9.773438 Z M 15.625 12.503906 C 15.644531 12.363281 15.628906 12.214844 15.617188 12.066406 C 15.515625 12.042969 15.417969 12.023438 15.316406 12.011719 C 15.3125 12.027344 15.3125 12.042969 15.304688 12.058594 C 15.253906 12.148438 15.1875 12.207031 15.117188 12.25 C 15.136719 12.316406 15.148438 12.382812 15.152344 12.453125 C 15.3125 12.464844 15.46875 12.480469 15.625 12.503906 Z M 15.617188 11.046875 C 15.667969 10.945312 15.632812 10.8125 15.535156 10.746094 C 15.433594 10.683594 15.324219 10.636719 15.289062 10.765625 C 15.25 10.902344 15.296875 11.039062 15.394531 11.136719 C 15.480469 11.160156 15.566406 11.144531 15.617188 11.046875 Z M 16.453125 10.394531 C 16.527344 10.296875 16.550781 10.183594 16.550781 10.066406 C 16.429688 10.085938 16.308594 10.105469 16.1875 10.128906 C 16.191406 10.191406 16.207031 10.253906 16.21875 10.3125 C 16.296875 10.339844 16.375 10.367188 16.453125 10.394531 Z M 18.175781 13.5625 C 18.175781 13.308594 18.164062 13.117188 18.125 12.890625 C 17.6875 12.898438 17.289062 12.890625 16.996094 12.886719 C 17.417969 13.0625 17.8125 13.289062 18.175781 13.5625 Z M 20.558594 11.890625 C 19.835938 11.894531 19.078125 11.914062 18.339844 11.960938 C 17.707031 12.003906 17.011719 12.054688 16.460938 12.386719 C 16.554688 12.4375 16.65625 12.472656 16.761719 12.5 C 17.460938 12.484375 20.035156 12.667969 20.558594 11.890625 Z M 19.726562 19.738281 C 19.886719 19.167969 19.929688 18.597656 19.917969 18.007812 C 19.84375 16.503906 19.4375 15.160156 18.253906 14.144531 C 17.242188 13.273438 15.910156 12.734375 14.5625 12.828125 C 13.628906 12.890625 12.753906 13.199219 12.015625 13.6875 C 12.007812 13.738281 11.984375 13.789062 11.929688 13.828125 C 11.824219 13.90625 11.734375 13.957031 11.613281 13.980469 C 10.390625 14.957031 9.609375 16.457031 9.617188 18.132812 C 9.636719 20.933594 12.210938 23.382812 15.0625 23.167969 C 16.597656 23.050781 17.640625 22.382812 18.644531 21.273438 C 19.070312 20.796875 19.542969 20.371094 19.726562 19.738281 Z M 20.1875 8.351562 C 20.160156 8.273438 20.140625 8.199219 20.128906 8.117188 C 18.613281 8.105469 16.535156 7.835938 15.382812 9.019531 C 15.402344 9.074219 15.414062 9.125 15.421875 9.179688 C 15.425781 9.175781 15.429688 9.175781 15.433594 9.171875 C 15.445312 9.039062 15.554688 9.007812 15.605469 9.085938 C 16.5 8.628906 17.480469 8.527344 18.46875 8.382812 C 19.023438 8.300781 19.640625 8.179688 20.1875 8.351562 Z M 20.5 10.953125 C 20.398438 10.21875 20.253906 9.488281 20.15625 8.753906 C 19.511719 8.476562 18.589844 8.753906 17.933594 8.84375 C 17.125 8.957031 16.347656 9.101562 15.632812 9.507812 C 15.632812 9.59375 15.632812 9.683594 15.632812 9.769531 C 15.722656 9.769531 15.808594 9.765625 15.894531 9.757812 C 15.933594 9.734375 15.980469 9.730469 16.03125 9.738281 C 16.035156 9.738281 16.042969 9.738281 16.050781 9.738281 C 16.085938 9.730469 16.117188 9.734375 16.148438 9.742188 C 16.28125 9.71875 16.417969 9.695312 16.550781 9.671875 C 16.625 9.65625 16.703125 9.679688 16.75 9.734375 C 16.855469 9.742188 16.917969 9.824219 16.929688 9.925781 C 16.96875 10.21875 16.902344 10.527344 16.671875 10.730469 C 16.621094 10.777344 16.5625 10.789062 16.507812 10.777344 C 16.472656 10.792969 16.429688 10.800781 16.382812 10.785156 C 16.285156 10.75 16.183594 10.71875 16.085938 10.6875 C 16.019531 10.664062 15.984375 10.628906 15.964844 10.582031 C 15.910156 10.558594 15.859375 10.527344 15.84375 10.46875 C 15.824219 10.367188 15.808594 10.191406 15.800781 10.191406 C 15.796875 10.191406 15.796875 10.191406 15.796875 10.191406 C 15.796875 10.191406 15.796875 10.1875 15.796875 10.183594 L 15.792969 10.191406 L 15.796875 10.191406 C 15.796875 10.261719 15.804688 10.304688 15.824219 10.375 C 15.835938 10.414062 15.828125 10.449219 15.820312 10.484375 C 16.003906 10.65625 16.078125 10.917969 15.992188 11.148438 C 16.039062 11.167969 16.078125 11.207031 16.09375 11.273438 C 16.113281 11.390625 16.132812 11.511719 16.160156 11.632812 C 16.945312 11.300781 17.773438 11.144531 18.625 11.015625 C 19.257812 10.917969 19.882812 10.839844 20.5 10.953125 Z M 20.160156 21.027344 C 20.269531 20.789062 20.378906 20.546875 20.488281 20.304688 C 20.242188 20.453125 20.011719 20.632812 19.792969 20.828125 C 19.917969 20.890625 20.039062 20.960938 20.160156 21.027344 Z M 20.644531 11.5 C 20.640625 11.460938 20.632812 11.417969 20.617188 11.375 C 19.832031 11.171875 19.015625 11.332031 18.222656 11.472656 C 17.535156 11.589844 16.875 11.738281 16.238281 12.015625 C 16.246094 12.03125 16.246094 12.046875 16.25 12.0625 C 16.753906 11.757812 17.351562 11.652344 17.941406 11.601562 C 18.84375 11.527344 19.71875 11.503906 20.644531 11.5 Z M 20.742188 19.75 C 20.761719 19.707031 20.78125 19.667969 20.796875 19.628906 C 20.742188 18.632812 20.695312 17.636719 20.742188 16.636719 C 20.667969 16.609375 20.601562 16.566406 20.550781 16.507812 C 20.308594 16.222656 20.484375 15.9375 20.75 15.773438 C 20.453125 15.75 20.152344 15.753906 19.851562 15.757812 C 20.132812 16.4375 20.269531 17.179688 20.308594 18.007812 C 20.324219 18.703125 20.289062 19.449219 20.007812 20.09375 C 19.992188 20.128906 19.976562 20.160156 19.960938 20.1875 C 20.203125 20.011719 20.460938 19.859375 20.742188 19.75 Z M 20.851562 22.199219 C 20.871094 22.199219 20.890625 22.199219 20.914062 22.199219 C 20.90625 21.617188 20.875 21.039062 20.84375 20.457031 C 20.730469 20.707031 20.617188 20.953125 20.507812 21.203125 C 20.515625 21.203125 20.519531 21.207031 20.527344 21.210938 C 20.578125 21.230469 20.609375 21.265625 20.632812 21.304688 C 20.699219 21.34375 20.75 21.417969 20.730469 21.519531 C 20.695312 21.699219 20.695312 21.882812 20.71875 22.070312 C 20.761719 22.113281 20.800781 22.15625 20.847656 22.195312 C 20.851562 22.195312 20.851562 22.199219 20.851562 22.199219 Z M 21.066406 16.261719 C 21.140625 16.214844 21.117188 16.15625 21.074219 16.09375 C 21.066406 16.078125 21.058594 16.0625 21.054688 16.042969 C 21 16.0625 20.949219 16.085938 20.910156 16.121094 C 20.875 16.152344 20.847656 16.183594 20.828125 16.222656 C 20.824219 16.234375 20.828125 16.230469 20.828125 16.234375 C 20.84375 16.257812 20.878906 16.273438 20.917969 16.28125 C 20.949219 16.273438 20.980469 16.273438 21.011719 16.28125 C 21.03125 16.277344 21.050781 16.273438 21.066406 16.261719 Z M 22.175781 20.933594 C 22.183594 20.871094 22.1875 20.804688 22.195312 20.738281 C 21.867188 20.539062 21.554688 20.3125 21.21875 20.121094 C 21.253906 20.785156 21.289062 21.449219 21.300781 22.113281 C 21.527344 21.675781 21.820312 21.277344 22.175781 20.933594 Z M 22.242188 20.308594 C 22.265625 20.082031 22.292969 19.855469 22.320312 19.628906 C 22.300781 19.628906 22.28125 19.628906 22.261719 19.617188 C 21.933594 19.503906 21.589844 19.550781 21.25 19.558594 C 21.234375 19.59375 21.222656 19.628906 21.203125 19.664062 C 21.21875 19.671875 21.226562 19.683594 21.238281 19.691406 C 21.589844 19.867188 21.910156 20.097656 22.242188 20.308594 Z M 22.347656 15.394531 C 22.375 15.355469 22.402344 15.316406 22.433594 15.28125 C 21.523438 15.082031 20.554688 15.132812 19.644531 15.320312 C 19.65625 15.335938 19.660156 15.355469 19.667969 15.371094 C 19.679688 15.371094 19.675781 15.367188 19.6875 15.367188 C 20.214844 15.363281 20.839844 15.351562 21.242188 15.453125 C 21.242188 15.429688 21.242188 15.394531 21.242188 15.394531 C 21.242188 15.296875 21.339844 15.246094 21.441406 15.246094 C 21.542969 15.246094 21.640625 15.296875 21.640625 15.394531 C 21.839844 15.394531 22.089844 15.394531 22.347656 15.394531 Z M 22.644531 14.929688 C 22.644531 14.851562 22.644531 14.78125 22.644531 14.722656 C 21.546875 14.484375 20.421875 14.722656 19.304688 14.753906 C 19.355469 14.824219 19.398438 14.894531 19.445312 14.964844 C 20.488281 14.734375 21.597656 14.675781 22.644531 14.929688 Z M 22.671875 12.257812 C 22.671875 12.15625 22.679688 12.054688 22.699219 11.960938 C 22.136719 11.917969 21.578125 11.945312 21.015625 11.953125 C 20.992188 12.023438 20.953125 12.085938 20.910156 12.148438 C 21.496094 12.148438 22.082031 12.238281 22.671875 12.257812 Z M 22.679688 20.566406 C 22.679688 20.460938 22.683594 20.351562 22.683594 20.246094 C 22.667969 20.230469 22.65625 20.214844 22.644531 20.199219 C 22.632812 20.308594 22.621094 20.417969 22.609375 20.527344 C 22.628906 20.539062 22.65625 20.554688 22.679688 20.566406 Z M 22.851562 14.371094 C 22.828125 13.894531 22.804688 13.417969 22.785156 12.941406 C 22.746094 12.902344 22.71875 12.84375 22.71875 12.792969 C 22.71875 12.785156 22.722656 12.777344 22.722656 12.769531 C 22.703125 12.742188 22.683594 12.707031 22.683594 12.660156 C 22.683594 12.65625 22.683594 12.652344 22.683594 12.652344 C 21.945312 12.625 21.21875 12.484375 20.476562 12.554688 C 20.4375 12.558594 20.40625 12.550781 20.378906 12.539062 C 19.882812 12.761719 19.183594 12.84375 18.515625 12.878906 C 18.558594 13.171875 18.566406 13.449219 18.566406 13.792969 C 18.566406 13.824219 18.558594 13.851562 18.542969 13.871094 C 18.59375 13.921875 18.648438 13.972656 18.699219 14.027344 C 18.8125 14.140625 18.914062 14.257812 19.011719 14.371094 C 19.023438 14.371094 19.03125 14.367188 19.042969 14.367188 C 20.316406 14.375 21.597656 14.058594 22.851562 14.371094 Z M 22.945312 17.109375 C 22.941406 16.972656 22.933594 16.835938 22.929688 16.699219 C 22.660156 16.792969 22.433594 16.972656 22.167969 17.085938 C 22.167969 17.09375 22.167969 17.101562 22.167969 17.113281 C 21.96875 17.816406 21.710938 18.496094 21.421875 19.164062 C 21.742188 19.148438 22.058594 19.132812 22.363281 19.242188 C 22.367188 19.242188 22.367188 19.246094 22.371094 19.246094 C 22.46875 18.554688 22.605469 17.871094 22.855469 17.210938 C 22.878906 17.164062 22.910156 17.128906 22.945312 17.109375 Z M 22.90625 19.398438 C 22.964844 18.980469 22.980469 18.558594 22.976562 18.140625 C 22.871094 18.570312 22.796875 19.011719 22.734375 19.457031 C 22.761719 19.421875 22.796875 19.398438 22.84375 19.398438 C 22.863281 19.398438 22.886719 19.398438 22.90625 19.398438 Z M 23.164062 11.648438 C 23.191406 11.644531 23.222656 11.640625 23.25 11.640625 C 23.246094 11.625 23.242188 11.609375 23.242188 11.59375 C 23.242188 10.839844 23.242188 10.089844 23.242188 9.335938 C 23.183594 9.332031 23.128906 9.316406 23.074219 9.285156 C 22.941406 9.199219 22.902344 9.039062 22.917969 8.894531 C 22.761719 8.886719 22.707031 8.644531 22.839844 8.539062 C 22.832031 8.53125 22.820312 8.527344 22.8125 8.523438 C 22.511719 8.453125 22.242188 8.285156 21.925781 8.234375 C 21.441406 8.152344 20.953125 8.050781 20.488281 7.890625 C 20.496094 7.910156 20.503906 7.933594 20.503906 7.957031 C 20.507812 8.125 20.570312 8.285156 20.628906 8.4375 C 20.664062 8.523438 20.605469 8.621094 20.527344 8.660156 C 20.527344 8.664062 20.527344 8.664062 20.527344 8.664062 C 20.53125 8.671875 20.535156 8.679688 20.539062 8.691406 C 20.636719 9.453125 20.792969 10.210938 20.898438 10.976562 C 20.902344 11.003906 20.898438 11.027344 20.890625 11.050781 C 20.917969 11.058594 20.9375 11.0625 20.960938 11.070312 C 21.121094 11.128906 21.121094 11.316406 21.035156 11.410156 C 21.050781 11.464844 21.058594 11.511719 21.0625 11.5625 C 21.6875 11.554688 22.304688 11.519531 22.925781 11.589844 C 23.011719 11.542969 23.109375 11.582031 23.164062 11.648438 Z M 23.351562 20.332031 C 23.257812 20.339844 23.164062 20.335938 23.074219 20.328125 C 23.066406 21.210938 23.042969 22.09375 23.011719 22.976562 C 23.136719 22.976562 23.265625 22.960938 23.390625 22.941406 C 23.289062 22.074219 23.34375 21.207031 23.351562 20.332031 Z M 23.453125 12.515625 C 23.46875 12.386719 23.476562 12.179688 23.484375 12.019531 C 23.34375 12.023438 23.203125 12.027344 23.074219 12.042969 C 23.03125 12.203125 23.058594 12.414062 23.070312 12.574219 C 23.199219 12.554688 23.324219 12.53125 23.453125 12.515625 Z M 23.507812 19.882812 C 23.5 19.867188 23.496094 19.863281 23.492188 19.851562 C 23.488281 19.832031 23.484375 19.816406 23.484375 19.796875 C 23.320312 19.796875 23.113281 19.796875 22.976562 19.796875 C 22.980469 19.84375 22.984375 19.886719 22.988281 19.929688 C 23.113281 19.949219 23.242188 19.964844 23.363281 19.941406 C 23.433594 19.929688 23.476562 19.910156 23.507812 19.882812 Z M 23.425781 19.398438 C 23.339844 18.496094 23.554688 17.582031 23.550781 16.675781 C 23.550781 16.175781 23.546875 15.671875 23.539062 15.167969 C 23.535156 15.160156 23.527344 15.15625 23.527344 15.148438 C 23.480469 15 23.464844 14.839844 23.484375 14.6875 C 23.445312 14.609375 23.457031 14.511719 23.519531 14.449219 C 23.5 13.9375 23.472656 13.421875 23.433594 12.910156 C 23.347656 12.917969 23.261719 12.933594 23.175781 12.949219 C 23.21875 14.117188 23.28125 15.285156 23.3125 16.453125 C 23.339844 17.4375 23.421875 18.417969 23.296875 19.398438 C 23.34375 19.398438 23.382812 19.398438 23.425781 19.398438 Z M 24.152344 14.261719 C 24.164062 14.027344 24.089844 13.808594 24.046875 13.582031 C 24.023438 13.585938 23.996094 13.585938 23.972656 13.582031 C 23.992188 13.820312 24.007812 14.058594 24.019531 14.300781 C 24.074219 14.296875 24.113281 14.292969 24.15625 14.277344 C 24.15625 14.273438 24.152344 14.269531 24.152344 14.261719 Z M 25.097656 7.800781 C 25.292969 7.746094 25.488281 7.710938 25.6875 7.679688 C 24.148438 7.21875 22.410156 7.066406 20.890625 7.613281 C 21.210938 7.703125 21.535156 7.777344 21.859375 7.828125 C 22.242188 7.890625 22.675781 8.160156 23.046875 8.164062 C 23.085938 8.164062 23.117188 8.175781 23.144531 8.191406 C 23.242188 8.191406 23.34375 8.191406 23.445312 8.191406 C 23.472656 8.171875 23.503906 8.160156 23.546875 8.164062 C 24.097656 8.191406 24.578125 7.949219 25.097656 7.800781 Z M 25.609375 19.332031 C 25.472656 19.042969 25.304688 18.761719 25.144531 18.488281 C 24.9375 18.128906 24.84375 17.796875 24.644531 17.382812 C 24.644531 17.382812 24.644531 17.382812 24.644531 17.378906 C 24.445312 17.171875 24.15625 16.929688 23.894531 16.699219 C 23.851562 17.613281 23.695312 18.574219 23.820312 19.476562 C 23.839844 19.46875 23.859375 19.46875 23.878906 19.46875 C 24.207031 19.511719 24.59375 19.648438 24.917969 19.546875 C 25.160156 19.476562 25.367188 19.378906 25.609375 19.332031 Z M 26.195312 7.433594 C 26.207031 7.242188 25.867188 7.121094 25.632812 7.042969 C 25.28125 6.929688 24.917969 6.859375 24.550781 6.820312 C 23.996094 6.765625 23.441406 6.75 22.882812 6.75 C 22.597656 6.75 20.679688 7.09375 20.363281 7.40625 C 22.179688 6.601562 24.34375 6.800781 26.195312 7.433594 Z M 7.632812 24.085938 C 7.636719 24.0625 7.636719 24.039062 7.636719 24.015625 C 7.648438 23.863281 7.683594 23.703125 7.789062 23.613281 C 7.828125 23.585938 7.863281 23.566406 7.898438 23.554688 C 8.015625 22.800781 8.136719 22.035156 8.472656 21.347656 C 8.476562 21.332031 8.480469 21.320312 8.492188 21.304688 C 8.503906 21.28125 8.511719 21.257812 8.523438 21.234375 C 8.558594 21.167969 8.613281 21.140625 8.667969 21.140625 C 8.882812 20.980469 9.132812 20.871094 9.375 20.761719 C 9.363281 20.726562 9.347656 20.691406 9.339844 20.648438 C 9.300781 20.5 9.425781 20.40625 9.542969 20.410156 C 9.550781 20.402344 9.550781 20.398438 9.558594 20.394531 C 9.597656 20.355469 9.640625 20.324219 9.683594 20.300781 C 9.671875 20.273438 9.660156 20.25 9.652344 20.226562 C 9.601562 20.21875 9.558594 20.1875 9.527344 20.128906 C 9.425781 19.933594 9.324219 19.742188 9.222656 19.550781 C 9.199219 19.582031 9.164062 19.609375 9.113281 19.617188 C 9.039062 19.632812 8.957031 19.640625 8.882812 19.652344 C 8.492188 20.296875 8.066406 20.917969 7.648438 21.546875 C 7.632812 22.285156 7.5625 23.023438 7.488281 23.757812 C 7.570312 23.828125 7.628906 23.914062 7.636719 24.015625 C 7.632812 24.039062 7.632812 24.0625 7.632812 24.085938 Z M 7.632812 24.089844 C 7.628906 24.132812 7.613281 24.171875 7.589844 24.21875 C 7.441406 24.480469 7.105469 24.519531 6.839844 24.457031 C 6.722656 24.425781 6.652344 24.273438 6.722656 24.167969 C 6.796875 24.0625 6.808594 23.941406 6.835938 23.816406 C 6.859375 23.714844 6.9375 23.675781 7.011719 23.675781 C 7.039062 23.644531 7.070312 23.621094 7.113281 23.609375 C 7.164062 23.140625 7.207031 22.667969 7.234375 22.191406 C 7.207031 22.230469 7.160156 22.261719 7.09375 22.261719 C 6.953125 22.261719 6.816406 22.273438 6.679688 22.289062 C 6.679688 22.289062 6.675781 22.289062 6.671875 22.289062 C 6.492188 22.304688 6.304688 22.324219 6.121094 22.328125 C 5.886719 22.332031 5.875 21.996094 6.078125 21.945312 C 5.714844 21.597656 5.296875 21.308594 4.929688 20.960938 C 4.925781 21.0625 4.917969 21.164062 4.914062 21.265625 C 4.914062 21.363281 4.851562 21.421875 4.777344 21.445312 C 4.765625 21.464844 4.738281 21.484375 4.710938 21.5 C 4.496094 21.625 4.242188 21.734375 4.054688 21.894531 C 3.855469 22.066406 3.753906 22.261719 3.710938 22.519531 C 3.703125 22.566406 3.617188 22.597656 3.617188 22.621094 L 3.617188 22.601562 C 3.617188 23 3.21875 23 3.21875 22.601562 C 3.21875 22.601562 3.21875 22.445312 3.21875 22.332031 C 3.21875 22.230469 3.320312 22.171875 3.398438 22.152344 C 3.460938 21.960938 3.597656 21.785156 3.753906 21.652344 C 3.984375 21.453125 4.261719 21.316406 4.523438 21.164062 C 4.527344 21.160156 4.527344 21.160156 4.53125 21.160156 C 4.535156 20.972656 4.546875 20.78125 4.5625 20.59375 C 4.25 20.253906 3.957031 19.890625 3.671875 19.523438 C 3.433594 19.996094 3.226562 20.511719 2.824219 20.871094 C 2.820312 20.875 2.816406 20.875 2.808594 20.878906 C 2.808594 20.890625 2.8125 20.902344 2.804688 20.917969 C 2.632812 21.46875 2.460938 22.019531 2.273438 22.566406 C 2.328125 22.699219 2.324219 22.84375 2.207031 22.960938 C 2.089844 23.074219 1.929688 23.132812 1.769531 23.15625 C 1.664062 23.171875 1.558594 23.128906 1.527344 23.019531 C 1.503906 22.925781 1.558594 22.792969 1.664062 22.777344 C 1.6875 22.777344 1.707031 22.769531 1.726562 22.765625 C 1.726562 22.757812 1.726562 22.753906 1.726562 22.75 C 1.769531 22.621094 1.8125 22.527344 1.902344 22.441406 C 2.089844 21.902344 2.257812 21.359375 2.429688 20.8125 C 2.441406 20.777344 2.460938 20.75 2.484375 20.730469 C 2.484375 20.683594 2.5 20.636719 2.546875 20.59375 C 3.019531 20.171875 3.179688 19.519531 3.515625 19 C 3.882812 18.441406 4.25 17.886719 4.664062 17.359375 C 4.582031 16.273438 4.496094 15.191406 4.640625 14.101562 C 4.554688 14.171875 4.421875 14.179688 4.351562 14.058594 C 4.21875 13.824219 4.183594 13.539062 4.316406 13.292969 C 4.34375 13.25 4.375 13.226562 4.410156 13.214844 C 4.433594 13.144531 4.492188 13.089844 4.589844 13.097656 C 5.167969 13.136719 5.753906 13.15625 6.335938 13.15625 C 6.332031 13.058594 6.328125 12.960938 6.328125 12.859375 C 6.328125 12.816406 6.339844 12.785156 6.359375 12.757812 C 6.277344 12.734375 6.195312 12.699219 6.125 12.660156 C 6.054688 12.625 6.003906 12.519531 6.035156 12.441406 C 6.109375 12.234375 5.996094 12.015625 5.964844 11.8125 C 5.949219 11.707031 5.988281 11.601562 6.101562 11.570312 C 6.140625 11.5625 6.183594 11.566406 6.222656 11.585938 C 6.25 11.570312 6.269531 11.5625 6.304688 11.566406 C 6.347656 11.566406 6.421875 11.570312 6.421875 11.574219 C 6.421875 11.546875 6.421875 11.519531 6.421875 11.492188 C 6.421875 11.488281 6.441406 11.484375 6.445312 11.480469 C 6.332031 10.804688 6.414062 10.128906 6.425781 9.453125 C 6.414062 9.453125 6.402344 9.453125 6.390625 9.453125 C 6.191406 9.453125 6.152344 9.210938 6.269531 9.109375 C 6.199219 8.902344 6.230469 8.679688 6.449219 8.570312 C 6.503906 8.542969 6.5625 8.527344 6.617188 8.523438 C 6.742188 8.433594 6.875 8.382812 7.011719 8.347656 C 6.886719 8.347656 6.753906 8.351562 6.625 8.351562 C 5.546875 8.359375 4.460938 8.441406 3.554688 7.757812 C 3.449219 7.679688 3.429688 7.554688 3.515625 7.453125 C 4.214844 6.613281 5.765625 6.710938 6.742188 6.722656 C 6.859375 6.722656 6.976562 6.722656 7.101562 6.722656 C 7.074219 6.636719 7.039062 6.558594 6.988281 6.492188 C 6.832031 6.296875 7.109375 6.019531 7.261719 6.21875 C 7.269531 6.226562 7.277344 6.238281 7.28125 6.246094 C 7.304688 6.210938 7.328125 6.179688 7.355469 6.152344 C 7.527344 5.96875 7.804688 6.246094 7.628906 6.425781 C 7.582031 6.480469 7.539062 6.539062 7.515625 6.605469 C 7.507812 6.628906 7.496094 6.648438 7.480469 6.664062 C 7.488281 6.683594 7.496094 6.703125 7.496094 6.722656 C 8.691406 6.730469 10.035156 6.785156 10.996094 7.421875 C 11.132812 7.515625 11.121094 7.730469 10.949219 7.777344 C 10.828125 7.8125 10.710938 7.84375 10.589844 7.871094 C 10.570312 7.890625 10.546875 7.902344 10.515625 7.914062 C 10.414062 7.9375 10.3125 7.964844 10.214844 7.988281 C 9.324219 8.199219 8.429688 8.292969 7.523438 8.332031 C 7.519531 8.351562 7.519531 8.371094 7.519531 8.390625 C 7.519531 8.457031 7.488281 8.507812 7.445312 8.539062 C 7.4375 8.601562 7.394531 8.660156 7.3125 8.679688 C 7.226562 8.695312 7.128906 8.707031 7.042969 8.734375 C 7.152344 8.914062 7.152344 9.144531 6.980469 9.285156 C 6.933594 9.328125 6.875 9.359375 6.816406 9.382812 C 6.808594 10.054688 6.722656 10.734375 6.835938 11.40625 C 6.839844 11.425781 6.828125 11.4375 6.828125 11.453125 C 6.832031 11.464844 6.820312 11.476562 6.820312 11.492188 C 6.820312 11.507812 6.820312 11.523438 6.820312 11.539062 C 7.023438 11.515625 6.996094 11.535156 7.042969 11.625 C 7.195312 11.925781 7.289062 12.328125 7.050781 12.609375 C 6.953125 12.722656 6.832031 12.777344 6.707031 12.792969 C 6.714844 12.8125 6.71875 12.835938 6.71875 12.859375 C 6.71875 12.960938 6.722656 13.058594 6.722656 13.15625 C 7.835938 13.15625 8.945312 13.109375 10.058594 13.082031 C 10.023438 13.074219 9.984375 13.070312 9.949219 13.0625 C 9.558594 13.003906 9.066406 12.960938 8.792969 12.636719 C 8.777344 12.640625 8.761719 12.644531 8.742188 12.648438 C 8.605469 12.683594 8.519531 12.582031 8.503906 12.472656 C 8.480469 12.441406 8.464844 12.40625 8.464844 12.359375 C 8.460938 12.238281 8.429688 12.117188 8.429688 11.992188 C 8.429688 11.96875 8.433594 11.949219 8.441406 11.929688 C 8.429688 11.839844 8.480469 11.742188 8.578125 11.710938 C 8.570312 11.679688 8.5625 11.648438 8.570312 11.609375 C 8.707031 10.832031 8.789062 10.046875 8.796875 9.257812 C 8.796875 9.234375 8.800781 9.21875 8.808594 9.199219 C 8.746094 9.171875 8.695312 9.117188 8.695312 9.023438 C 8.699219 8.871094 8.730469 8.722656 8.769531 8.574219 C 8.777344 8.535156 8.792969 8.511719 8.8125 8.492188 C 8.839844 8.421875 8.898438 8.363281 8.992188 8.363281 C 9.425781 8.355469 9.832031 8.214844 10.25 8.128906 C 10.390625 8.101562 10.53125 8.078125 10.675781 8.066406 C 11.261719 8.027344 11.859375 8.007812 12.449219 8.035156 C 13.296875 8.082031 14.148438 8.203125 14.863281 8.6875 C 14.917969 8.726562 14.945312 8.773438 14.949219 8.824219 C 14.96875 8.835938 14.988281 8.851562 15.003906 8.867188 C 15.011719 8.851562 15.015625 8.835938 15.03125 8.820312 C 16.21875 7.484375 18.34375 7.703125 19.988281 7.726562 C 19.304688 6.785156 22.027344 6.429688 22.511719 6.382812 C 22.707031 6.363281 22.910156 6.351562 23.113281 6.347656 C 23.105469 6.335938 23.097656 6.324219 23.09375 6.308594 C 23.0625 6.203125 23.128906 6.105469 23.230469 6.070312 C 23.28125 6.050781 23.335938 6.039062 23.386719 6.03125 C 23.386719 5.988281 23.390625 5.941406 23.390625 5.898438 C 23.367188 5.917969 23.34375 5.933594 23.304688 5.945312 C 23.207031 5.96875 23.113281 5.980469 23.011719 6 C 22.96875 6.203125 22.644531 6.191406 22.644531 5.957031 C 22.644531 5.835938 22.644531 5.789062 22.644531 5.589844 C 22.644531 5.386719 23.042969 5.386719 23.042969 5.589844 C 23.042969 5.589844 23.042969 5.597656 23.042969 5.601562 C 23.042969 5.59375 23.152344 5.582031 23.214844 5.570312 C 23.292969 5.546875 23.339844 5.582031 23.382812 5.628906 C 23.367188 5.261719 23.324219 4.890625 23.320312 4.523438 C 23.316406 4.269531 23.707031 4.269531 23.707031 4.523438 C 23.714844 5.046875 23.796875 5.5625 23.777344 6.089844 C 23.777344 6.089844 23.773438 6.09375 23.773438 6.09375 C 23.796875 6.101562 23.820312 6.109375 23.847656 6.121094 C 23.9375 6.164062 23.960938 6.285156 23.921875 6.371094 C 24.207031 6.390625 24.496094 6.417969 24.773438 6.457031 C 25.441406 6.550781 26.304688 6.699219 26.652344 7.359375 C 26.695312 7.445312 26.679688 7.523438 26.621094 7.59375 C 26.609375 7.613281 26.59375 7.625 26.582031 7.640625 C 26.625 7.742188 26.59375 7.875 26.457031 7.914062 C 25.921875 8.0625 25.363281 8.105469 24.835938 8.285156 C 24.492188 8.40625 24.140625 8.515625 23.789062 8.546875 C 23.855469 8.644531 23.84375 8.796875 23.644531 8.839844 C 23.644531 8.933594 23.644531 9.027344 23.644531 9.125 C 23.644531 9.253906 23.585938 9.3125 23.492188 9.3125 C 23.484375 9.3125 23.472656 9.308594 23.460938 9.308594 C 23.460938 9.308594 23.484375 9.3125 23.492188 9.3125 C 23.5 9.3125 23.5 9.3125 23.5 9.3125 C 23.484375 9.316406 23.460938 9.320312 23.445312 9.324219 C 23.445312 10.15625 23.445312 11.59375 23.445312 11.59375 C 23.445312 11.609375 23.441406 11.621094 23.4375 11.632812 C 23.511719 11.632812 23.582031 11.632812 23.644531 11.632812 C 23.664062 11.632812 23.679688 11.636719 23.695312 11.644531 C 23.789062 11.648438 23.878906 11.695312 23.878906 11.792969 C 23.878906 11.855469 23.878906 11.910156 23.878906 11.957031 C 23.878906 11.957031 23.882812 11.953125 23.882812 11.953125 C 23.96875 11.890625 24.101562 11.933594 24.152344 12.019531 C 24.171875 12.058594 24.175781 12.089844 24.171875 12.128906 C 24.273438 12.222656 24.25 12.40625 24.101562 12.449219 C 24.09375 12.539062 24.03125 12.59375 23.914062 12.59375 C 23.898438 12.59375 23.878906 12.59375 23.863281 12.59375 C 23.867188 12.59375 23.871094 12.648438 23.871094 12.664062 C 23.890625 12.691406 23.90625 12.753906 23.910156 12.792969 C 23.925781 12.933594 23.9375 13.074219 23.949219 13.214844 C 23.953125 13.210938 23.960938 13.207031 23.96875 13.207031 C 23.996094 13.199219 24.023438 13.199219 24.046875 13.195312 C 24.082031 13.117188 24.046875 13.074219 24.246094 13.074219 C 24.246094 13.039062 24.246094 13 24.246094 12.964844 C 24.246094 12.910156 24.140625 12.820312 24.199219 12.726562 C 24.28125 12.605469 24.390625 12.566406 24.535156 12.566406 C 24.746094 12.5625 24.84375 12.84375 24.644531 12.929688 C 24.644531 13.054688 24.644531 13.183594 24.644531 13.308594 C 24.644531 13.332031 24.644531 13.359375 24.644531 13.394531 C 24.644531 13.59375 24.644531 13.792969 24.644531 13.996094 C 24.644531 14.058594 24.597656 14.101562 24.542969 14.125 C 24.546875 14.171875 24.546875 14.214844 24.542969 14.261719 C 24.542969 14.300781 24.527344 14.332031 24.507812 14.359375 C 24.535156 14.445312 24.496094 14.554688 24.410156 14.597656 C 24.320312 14.640625 24.167969 14.660156 24.039062 14.675781 C 24.039062 14.703125 24.035156 14.730469 24.027344 14.75 C 24.035156 14.773438 24.042969 14.800781 24.042969 14.828125 C 24.042969 14.972656 24.015625 15.097656 23.929688 15.183594 C 23.9375 15.53125 23.941406 15.875 23.941406 16.21875 C 23.96875 16.222656 23.996094 16.238281 24.019531 16.257812 C 24.335938 16.515625 24.613281 16.820312 24.949219 17.0625 C 24.984375 17.085938 25.003906 17.121094 25.019531 17.152344 C 25.058594 17.175781 25.09375 17.214844 25.105469 17.277344 C 25.195312 17.824219 25.527344 18.210938 25.75 18.699219 C 25.988281 19.210938 26.265625 19.699219 26.503906 20.210938 C 26.921875 21.117188 27.378906 22.003906 27.8125 22.90625 C 28 22.964844 28.160156 23.097656 28.253906 23.269531 C 28.300781 23.355469 28.285156 23.488281 28.183594 23.535156 C 28.101562 23.574219 28.011719 23.601562 27.917969 23.609375 C 27.855469 23.640625 27.78125 23.640625 27.726562 23.589844 C 27.691406 23.578125 27.65625 23.566406 27.625 23.546875 C 27.457031 23.453125 27.359375 23.296875 27.296875 23.121094 C 27.261719 23.015625 27.3125 22.941406 27.386719 22.90625 C 26.945312 21.984375 26.503906 21.0625 26.039062 20.15625 C 25.960938 20 25.886719 19.847656 25.808594 19.691406 C 25.496094 19.742188 25.207031 19.878906 24.898438 19.953125 C 24.59375 20.027344 24.222656 19.910156 23.914062 19.863281 C 23.898438 20 23.84375 20.121094 23.734375 20.203125 C 23.738281 20.210938 23.742188 20.222656 23.742188 20.234375 C 23.742188 20.644531 23.722656 21.0625 23.714844 21.476562 C 23.738281 21.480469 23.761719 21.488281 23.777344 21.503906 C 23.929688 21.613281 24.085938 21.714844 24.246094 21.808594 C 24.253906 21.816406 24.257812 21.835938 24.265625 21.839844 C 24.328125 21.855469 24.382812 21.917969 24.402344 21.996094 C 24.449219 22.175781 24.539062 22.402344 24.664062 22.601562 C 24.714844 22.601562 24.765625 22.601562 24.816406 22.601562 C 24.992188 22.601562 25.042969 22.746094 24.96875 22.859375 C 25.003906 23 24.851562 23.128906 24.683594 23.035156 C 24.613281 22.996094 24.550781 22.945312 24.492188 22.890625 C 24.382812 22.878906 24.328125 22.792969 24.324219 22.699219 C 24.203125 22.527344 24.113281 22.328125 24.050781 22.136719 C 24.050781 22.136719 24.050781 22.136719 24.046875 22.136719 C 23.9375 22.066406 23.824219 21.996094 23.714844 21.925781 C 23.71875 22.269531 23.734375 22.613281 23.78125 22.960938 C 23.820312 23 23.84375 23.050781 23.84375 23.101562 C 23.84375 23.160156 23.820312 23.207031 23.78125 23.238281 C 23.722656 23.351562 23.566406 23.394531 23.484375 23.320312 C 23.257812 23.351562 23.039062 23.382812 22.8125 23.359375 C 22.679688 23.347656 22.621094 23.234375 22.628906 23.132812 C 22.621094 23.113281 22.617188 23.089844 22.617188 23.066406 C 22.640625 22.382812 22.660156 21.695312 22.671875 21.011719 C 22.628906 21.050781 22.585938 21.089844 22.542969 21.128906 C 22.433594 22.164062 22.335938 23.199219 22.242188 24.234375 C 22.234375 24.296875 22.203125 24.34375 22.160156 24.375 C 22.175781 24.480469 22.113281 24.597656 21.976562 24.597656 C 21.78125 24.597656 21.738281 24.359375 21.851562 24.257812 C 21.851562 24.25 21.847656 24.242188 21.847656 24.234375 C 21.929688 23.351562 22.015625 22.472656 22.105469 21.59375 C 21.886719 21.871094 21.695312 22.171875 21.546875 22.5 C 21.496094 22.605469 21.394531 22.617188 21.316406 22.578125 C 21.292969 22.589844 21.269531 22.601562 21.242188 22.601562 C 21.136719 22.601562 20.96875 22.601562 20.84375 22.601562 C 21.023438 23.15625 21.34375 23.707031 21.546875 24.167969 C 21.644531 24.398438 21.308594 24.597656 21.210938 24.367188 C 21.195312 24.335938 21.183594 24.308594 21.171875 24.28125 C 21.101562 24.304688 21.027344 24.296875 20.972656 24.238281 C 20.902344 24.167969 20.890625 24.03125 20.972656 23.964844 C 20.984375 23.953125 20.996094 23.945312 21.007812 23.933594 C 20.757812 23.40625 20.472656 22.839844 20.363281 22.265625 C 20.289062 22.183594 20.21875 22.097656 20.152344 22.007812 C 20.058594 22.230469 19.96875 22.457031 19.882812 22.6875 C 20.054688 22.757812 20.035156 23.066406 19.808594 23.0625 C 19.632812 23.058594 19.460938 23.019531 19.289062 22.988281 C 19.183594 22.96875 19.125 22.84375 19.152344 22.75 C 19.183594 22.640625 19.289062 22.589844 19.390625 22.609375 C 19.425781 22.617188 19.453125 22.625 19.488281 22.628906 C 19.609375 22.296875 19.746094 21.976562 19.886719 21.648438 C 19.726562 21.441406 19.550781 21.25 19.324219 21.109375 C 19.144531 21.3125 18.957031 21.507812 18.769531 21.714844 C 17.738281 22.867188 16.390625 23.601562 14.796875 23.5625 C 13.257812 23.527344 11.761719 22.84375 10.707031 21.765625 C 10.753906 22.023438 10.792969 22.289062 10.898438 22.535156 C 10.921875 22.59375 10.917969 22.652344 10.898438 22.699219 C 10.921875 22.746094 10.929688 22.804688 10.917969 22.851562 C 10.886719 22.960938 10.785156 23.007812 10.675781 22.988281 C 10.417969 22.9375 10.171875 22.738281 10.273438 22.445312 C 10.292969 22.390625 10.34375 22.324219 10.410156 22.3125 C 10.417969 22.3125 10.421875 22.3125 10.429688 22.308594 C 10.355469 21.992188 10.316406 21.664062 10.207031 21.351562 C 10.1875 21.289062 10.195312 21.234375 10.222656 21.195312 C 10.183594 21.140625 10.140625 21.082031 10.097656 21.027344 C 10.097656 21.027344 10.097656 21.03125 10.09375 21.035156 C 9.960938 21.125 9.769531 21.164062 9.625 21.078125 C 9.34375 21.195312 9.046875 21.316406 8.820312 21.519531 C 8.480469 22.203125 8.378906 22.980469 8.261719 23.734375 C 8.328125 23.84375 8.351562 23.988281 8.320312 24.109375 C 8.277344 24.277344 8.136719 24.371094 7.976562 24.386719 C 7.871094 24.507812 7.628906 24.46875 7.628906 24.269531 C 7.628906 24.214844 7.628906 24.152344 7.632812 24.089844 Z M 21.371094 15.796875 C 21.378906 15.824219 21.394531 15.84375 21.40625 15.859375 C 21.398438 15.839844 21.386719 15.808594 21.371094 15.796875 Z M 21.371094 15.796875 C 21.371094 15.796875 21.371094 15.796875 21.367188 15.796875 C 21.367188 15.796875 21.371094 15.796875 21.371094 15.796875 Z M 21.414062 15.867188 C 21.566406 16.09375 21.523438 16.429688 21.289062 16.582031 C 21.242188 16.613281 21.1875 16.636719 21.132812 16.648438 C 21.097656 17.375 21.113281 18.097656 21.148438 18.824219 C 21.394531 18.230469 21.613281 17.628906 21.789062 17.007812 C 21.804688 16.960938 21.832031 16.925781 21.863281 16.902344 C 21.871094 16.835938 21.910156 16.761719 21.992188 16.730469 C 22.214844 16.652344 22.402344 16.507812 22.609375 16.398438 C 22.394531 16.363281 22.40625 15.996094 22.644531 15.996094 C 22.722656 15.996094 22.800781 15.996094 22.878906 15.996094 C 22.894531 15.996094 22.902344 16.019531 22.914062 16.023438 C 22.910156 15.792969 22.90625 15.582031 22.898438 15.351562 C 22.785156 15.464844 22.675781 15.578125 22.613281 15.726562 C 22.585938 15.789062 22.515625 15.824219 22.445312 15.824219 C 22.410156 15.824219 22.375 15.8125 22.347656 15.796875 C 22.109375 15.796875 21.828125 15.796875 21.640625 15.796875 C 21.59375 15.871094 21.496094 15.960938 21.414062 15.867188 " fill-opacity="1" fill-rule="nonzero"/></g><path fill="#26e8a0" d="M 21.40625 15.859375 C 21.394531 15.84375 21.378906 15.824219 21.371094 15.796875 C 21.386719 15.808594 21.398438 15.839844 21.40625 15.859375 " fill-opacity="1" fill-rule="nonzero"/><path fill="#26e8a0" d="M 19.109375 19.554688 C 19.257812 19.046875 19.296875 18.539062 19.289062 18.007812 C 19.230469 16.757812 18.929688 15.640625 17.980469 14.753906 C 17.125 13.957031 15.984375 13.425781 14.796875 13.453125 C 12.34375 13.519531 10.304688 15.480469 10.253906 17.964844 C 10.203125 20.390625 12.296875 22.609375 14.796875 22.542969 C 16.167969 22.503906 17.191406 21.96875 18.09375 20.960938 C 18.480469 20.527344 18.941406 20.132812 19.109375 19.554688 Z M 19.679688 18.007812 C 19.691406 18.640625 19.664062 19.335938 19.386719 19.921875 C 19.109375 20.503906 18.648438 20.941406 18.214844 21.410156 C 17.273438 22.429688 15.972656 23.03125 14.558594 22.925781 C 11.933594 22.730469 9.574219 20.46875 9.878906 17.734375 C 10.164062 15.152344 12.277344 12.867188 15.027344 13.070312 C 16.300781 13.164062 17.582031 13.679688 18.433594 14.664062 C 19.308594 15.671875 19.617188 16.695312 19.679688 18.007812 " fill-opacity="1" fill-rule="nonzero"/><path fill="#26e8a0" d="M 15.796875 10.183594 C 15.796875 10.1875 15.796875 10.191406 15.796875 10.191406 L 15.792969 10.191406 L 15.796875 10.183594 " fill-opacity="1" fill-rule="nonzero"/><g clip-path="url(#id2)"><path fill="#26e8a0" d="M 7.636719 24.015625 C 7.636719 24.039062 7.636719 24.0625 7.632812 24.085938 C 7.632812 24.0625 7.632812 24.039062 7.636719 24.015625 " fill-opacity="1" fill-rule="nonzero"/></g></svg>