<svg xmlns="http://www.w3.org/2000/svg" xmlns:xlink="http://www.w3.org/1999/xlink" width="300" zoomAndPan="magnify" viewBox="0 0 224.87999 74.999997" height="100" preserveAspectRatio="xMidYMid meet" version="1.0"><path fill="#ffffff" d="M 6.089844 25.417969 C 18.28125 24.316406 35.203125 25.234375 35.203125 25.234375 L 35.203125 29.734375 L 23.742188 29.734375 L 23.742188 49.109375 L 18.101562 49.109375 L 18.101562 29.734375 L 6.273438 29.734375 L 6.089844 25.417969 " fill-opacity="1" fill-rule="nonzero"/><path fill="#3cc2d2" d="M 101.097656 42.128906 C 101.097656 44.160156 99.46875 45.804688 97.460938 45.804688 C 95.449219 45.804688 93.820312 44.160156 93.820312 42.128906 C 93.820312 40.101562 95.449219 38.457031 97.460938 38.457031 C 99.46875 38.457031 101.097656 40.105469 101.097656 42.128906 " fill-opacity="1" fill-rule="nonzero"/><path fill="#ffffff" d="M 66.707031 25.050781 L 66.707031 34.785156 L 51.214844 34.785156 L 51.214844 25.050781 L 45.394531 25.417969 L 45.394531 49.394531 L 51.214844 49.660156 L 51.214844 39.195312 L 66.707031 39.195312 L 66.707031 49.660156 L 72.535156 49.394531 L 72.535156 25.417969 L 66.707031 25.050781 " fill-opacity="1" fill-rule="nonzero"/><path fill="#ffffff" d="M 81.421875 49.109375 L 94.886719 25.417969 L 100.527344 25.417969 L 114.171875 49.109375 L 107.804688 49.660156 L 97.796875 31.109375 L 97.25 31.109375 L 87.0625 49.476562 L 81.421875 49.109375 " fill-opacity="1" fill-rule="nonzero"/><path fill="#ffffff" d="M 122.722656 49.109375 L 122.722656 25.601562 L 128 25.601562 L 128 44.886719 L 146.558594 44.886719 L 146.558594 49.109375 C 146.558594 49.109375 134.371094 51.679688 122.722656 49.109375 " fill-opacity="1" fill-rule="nonzero"/><path fill="#ffffff" d="M 155.65625 49.296875 L 155.65625 25.417969 C 155.65625 25.417969 172.398438 23.582031 180.949219 25.601562 L 180.949219 30.011719 L 161.613281 30.195312 L 161.613281 34.96875 L 172.761719 34.96875 L 172.761719 39.5625 L 161.617188 39.5625 L 161.617188 45.070312 L 181.3125 45.070312 L 181.3125 49.480469 C 181.3125 49.476562 166.757812 51.496094 155.65625 49.296875 " fill-opacity="1" fill-rule="nonzero"/><path fill="#ffffff" d="M 216.976562 25.234375 L 216.976562 30.011719 L 195.871094 30.011719 L 195.871094 34.785156 C 195.871094 34.785156 210.789062 34.785156 213.15625 34.785156 C 215.519531 34.785156 217.339844 36.804688 217.339844 38.828125 C 217.339844 40.847656 217.339844 43.96875 217.339844 45.070312 C 217.339844 49.109375 213.15625 50.214844 209.335938 50.214844 C 203.511719 50.214844 193.871094 50.027344 190.59375 49.480469 L 190.59375 45.070312 L 212.246094 45.070312 L 212.246094 39.742188 C 212.246094 39.742188 198.597656 39.742188 196.054688 39.742188 C 193.507812 39.742188 190.777344 38.273438 190.777344 36.4375 C 190.777344 34.601562 190.777344 31.660156 190.777344 29.273438 C 190.777344 26.890625 194.050781 25.234375 196.597656 25.234375 C 199.144531 25.234375 216.976562 25.234375 216.976562 25.234375 " fill-opacity="1" fill-rule="nonzero"/></svg>