<svg xmlns="http://www.w3.org/2000/svg" xmlns:xlink="http://www.w3.org/1999/xlink" width="40" zoomAndPan="magnify" viewBox="0 0 30 30.000001" height="40" preserveAspectRatio="xMidYMid meet" version="1.0"><defs><clipPath id="id1"><path d="M 25 5.546875 L 29.21875 5.546875 L 29.21875 28.085938 L 25 28.085938 Z M 25 5.546875 " clip-rule="nonzero"/></clipPath><clipPath id="id2"><path d="M 18 10.628906 L 22.84375 10.628906 L 22.84375 28.085938 L 18 28.085938 Z M 18 10.628906 " clip-rule="nonzero"/></clipPath><clipPath id="id3"><path d="M 11 16 L 15.832031 16 L 15.832031 28.085938 L 11 28.085938 Z M 11 16 " clip-rule="nonzero"/></clipPath><clipPath id="id4"><path d="M 4 21.433594 L 8.820312 21.433594 L 8.820312 28.085938 L 4 28.085938 Z M 4 21.433594 " clip-rule="nonzero"/></clipPath></defs><g clip-path="url(#id1)"><path fill="#26e8a0" d="M 29.21875 5.613281 L 25.226562 5.613281 L 25.226562 28.085938 L 29.21875 28.085938 L 29.21875 5.613281 " fill-opacity="1" fill-rule="nonzero"/></g><g clip-path="url(#id2)"><path fill="#26e8a0" d="M 22.234375 10.75 L 18.242188 10.75 L 18.242188 28.085938 L 22.234375 28.085938 L 22.234375 10.75 " fill-opacity="1" fill-rule="nonzero"/></g><g clip-path="url(#id3)"><path fill="#26e8a0" d="M 15.25 16.34375 L 11.257812 16.34375 L 11.257812 28.085938 L 15.25 28.085938 L 15.25 16.34375 " fill-opacity="1" fill-rule="nonzero"/></g><g clip-path="url(#id4)"><path fill="#26e8a0" d="M 8.265625 21.710938 L 4.273438 21.710938 L 4.273438 28.085938 L 8.265625 28.085938 L 8.265625 21.710938 " fill-opacity="1" fill-rule="nonzero"/></g><path fill="#26e8a0" d="M 21.613281 3.535156 C 21.65625 3.753906 21.507812 3.96875 21.285156 4.007812 C 21.066406 4.050781 20.855469 3.902344 20.8125 3.6875 L 20.617188 2.664062 C 16.421875 9.71875 9.277344 14.070312 1.714844 16.832031 C 1.210938 17.015625 0.933594 16.253906 1.433594 16.070312 C 8.816406 13.371094 15.820312 9.136719 19.917969 2.25 L 18.886719 2.625 C 18.675781 2.699219 18.441406 2.585938 18.367188 2.378906 C 18.292969 2.167969 18.402344 1.933594 18.613281 1.859375 L 20.652344 1.125 L 20.738281 1.101562 C 20.957031 1.058594 21.167969 1.207031 21.210938 1.425781 L 21.613281 3.535156 " fill-opacity="1" fill-rule="nonzero"/></svg>