<svg xmlns="http://www.w3.org/2000/svg" xmlns:xlink="http://www.w3.org/1999/xlink" width="40" zoomAndPan="magnify" viewBox="0 0 30 30.000001" height="40" preserveAspectRatio="xMidYMid meet" version="1.0"><defs><clipPath id="id1"><path d="M 2 4.464844 L 28.117188 4.464844 L 28.117188 24.785156 L 2 24.785156 Z M 2 4.464844 " clip-rule="nonzero"/></clipPath></defs><path fill="#26e8a0" d="M 26.0625 5.492188 C 26.0625 5.628906 25.992188 5.695312 25.859375 5.695312 C 25.722656 5.695312 25.652344 5.628906 25.652344 5.492188 C 25.652344 5.355469 25.722656 5.285156 25.859375 5.285156 C 25.992188 5.285156 26.0625 5.355469 26.0625 5.492188 Z M 26.0625 5.492188 " fill-opacity="1" fill-rule="nonzero"/><path fill="#26e8a0" d="M 25.246094 5.492188 C 25.246094 5.628906 25.179688 5.695312 25.042969 5.695312 C 24.90625 5.695312 24.839844 5.628906 24.839844 5.492188 C 24.839844 5.355469 24.90625 5.285156 25.042969 5.285156 C 25.179688 5.285156 25.246094 5.355469 25.246094 5.492188 Z M 25.246094 5.492188 " fill-opacity="1" fill-rule="nonzero"/><path fill="#26e8a0" d="M 24.429688 5.492188 C 24.429688 5.628906 24.363281 5.695312 24.226562 5.695312 C 24.089844 5.695312 24.023438 5.628906 24.023438 5.492188 C 24.023438 5.355469 24.089844 5.285156 24.226562 5.285156 C 24.363281 5.285156 24.429688 5.355469 24.429688 5.492188 Z M 24.429688 5.492188 " fill-opacity="1" fill-rule="nonzero"/><g clip-path="url(#id1)"><path fill="#26e8a0" d="M 27.285156 4.464844 L 2.820312 4.464844 C 2.371094 4.464844 2.003906 4.832031 2.003906 5.285156 L 2.003906 21.707031 C 2.003906 22.160156 2.371094 22.527344 2.820312 22.527344 L 13.625 22.527344 L 13.625 24.375 L 11.996094 24.375 C 11.871094 24.375 11.789062 24.457031 11.789062 24.582031 C 11.789062 24.703125 11.871094 24.785156 11.996094 24.785156 L 18.109375 24.785156 C 18.234375 24.785156 18.3125 24.703125 18.3125 24.582031 C 18.3125 24.457031 18.234375 24.375 18.109375 24.375 L 16.480469 24.375 L 16.480469 22.527344 L 27.285156 22.527344 C 27.734375 22.527344 28.101562 22.160156 28.101562 21.707031 L 28.101562 5.285156 C 28.101562 4.832031 27.734375 4.464844 27.285156 4.464844 Z M 27.691406 21.707031 C 27.691406 21.933594 27.507812 22.117188 27.285156 22.117188 L 2.820312 22.117188 C 2.59375 22.117188 2.414062 21.933594 2.414062 21.707031 L 2.414062 20.679688 L 27.691406 20.679688 Z M 13.542969 14.644531 C 13.625 14.707031 13.664062 14.832031 13.585938 14.933594 C 13.542969 14.996094 13.480469 15.015625 13.421875 15.015625 C 13.378906 15.015625 13.339844 14.996094 13.300781 14.972656 L 11.464844 13.660156 C 11.421875 13.621094 11.382812 13.558594 11.382812 13.496094 C 11.382812 13.433594 11.421875 13.375 11.464844 13.332031 L 13.300781 12.019531 C 13.402344 11.957031 13.523438 11.976562 13.585938 12.058594 C 13.644531 12.160156 13.625 12.285156 13.542969 12.347656 L 11.933594 13.496094 Z M 11.789062 16.78125 C 11.914062 16.78125 11.996094 16.863281 11.996094 16.984375 C 11.996094 17.109375 11.914062 17.191406 11.789062 17.191406 L 7.386719 17.191406 C 7.265625 17.191406 7.183594 17.109375 7.183594 16.984375 C 7.183594 16.863281 7.265625 16.78125 7.386719 16.78125 Z M 11.363281 18.628906 C 11.363281 18.75 11.28125 18.832031 11.160156 18.832031 L 6.773438 18.832031 C 6.652344 18.832031 6.570312 18.75 6.570312 18.628906 C 6.570312 18.503906 6.652344 18.421875 6.773438 18.421875 L 11.179688 18.421875 C 11.28125 18.421875 11.363281 18.503906 11.363281 18.628906 Z M 9.710938 13.496094 C 9.832031 13.496094 9.914062 13.578125 9.914062 13.703125 C 9.914062 13.824219 9.832031 13.90625 9.710938 13.90625 L 6.144531 13.90625 C 6.019531 13.90625 5.9375 13.824219 5.9375 13.703125 C 5.9375 13.578125 6.019531 13.496094 6.144531 13.496094 Z M 9.488281 12.265625 L 4.472656 12.265625 C 4.347656 12.265625 4.265625 12.183594 4.265625 12.058594 C 4.265625 11.9375 4.347656 11.855469 4.472656 11.855469 L 9.488281 11.855469 C 9.609375 11.855469 9.691406 11.9375 9.691406 12.058594 C 9.691406 12.183594 9.609375 12.265625 9.488281 12.265625 Z M 6.347656 14.316406 L 8.425781 14.316406 C 8.546875 14.316406 8.628906 14.398438 8.628906 14.523438 C 8.628906 14.644531 8.546875 14.726562 8.425781 14.726562 L 6.347656 14.726562 C 6.222656 14.726562 6.144531 14.644531 6.144531 14.523438 C 6.144531 14.398438 6.246094 14.316406 6.347656 14.316406 Z M 10.546875 11.445312 L 5.101562 11.445312 C 4.980469 11.445312 4.898438 11.363281 4.898438 11.238281 C 4.898438 11.113281 4.980469 11.03125 5.101562 11.03125 L 10.546875 11.03125 C 10.667969 11.03125 10.75 11.113281 10.75 11.238281 C 10.75 11.363281 10.648438 11.445312 10.546875 11.445312 Z M 9.914062 8.980469 L 5.511719 8.980469 C 5.390625 8.980469 5.308594 8.898438 5.308594 8.773438 C 5.308594 8.652344 5.390625 8.570312 5.511719 8.570312 L 9.914062 8.570312 C 10.035156 8.570312 10.117188 8.652344 10.117188 8.773438 C 10.117188 8.898438 10.015625 8.980469 9.914062 8.980469 Z M 7.40625 8.160156 L 3.429688 8.160156 C 3.308594 8.160156 3.226562 8.078125 3.226562 7.953125 C 3.226562 7.832031 3.308594 7.75 3.429688 7.75 L 7.40625 7.75 C 7.53125 7.75 7.609375 7.832031 7.609375 7.953125 C 7.609375 8.078125 7.53125 8.160156 7.40625 8.160156 Z M 3.429688 9.390625 L 6.980469 9.390625 C 7.101562 9.390625 7.183594 9.472656 7.183594 9.597656 C 7.183594 9.71875 7.101562 9.800781 6.980469 9.800781 L 3.429688 9.800781 C 3.308594 9.800781 3.226562 9.71875 3.226562 9.597656 C 3.226562 9.472656 3.308594 9.390625 3.429688 9.390625 Z M 3.429688 10.210938 L 7.609375 10.210938 C 7.734375 10.210938 7.816406 10.292969 7.816406 10.417969 C 7.816406 10.539062 7.734375 10.621094 7.609375 10.621094 L 3.429688 10.621094 C 3.308594 10.621094 3.226562 10.539062 3.226562 10.417969 C 3.226562 10.292969 3.308594 10.210938 3.429688 10.210938 Z M 3.429688 12.675781 L 8.445312 12.675781 C 8.570312 12.675781 8.652344 12.757812 8.652344 12.878906 C 8.652344 13.003906 8.570312 13.085938 8.445312 13.085938 L 3.429688 13.085938 C 3.308594 13.085938 3.226562 13.003906 3.226562 12.878906 C 3.226562 12.757812 3.308594 12.675781 3.429688 12.675781 Z M 3.429688 15.136719 L 8.445312 15.136719 C 8.570312 15.136719 8.652344 15.222656 8.652344 15.34375 C 8.652344 15.46875 8.570312 15.550781 8.445312 15.550781 L 3.429688 15.550781 C 3.308594 15.550781 3.226562 15.46875 3.226562 15.34375 C 3.226562 15.222656 3.308594 15.136719 3.429688 15.136719 Z M 3.429688 15.960938 L 8.222656 15.960938 C 8.34375 15.960938 8.425781 16.042969 8.425781 16.164062 C 8.425781 16.289062 8.34375 16.371094 8.222656 16.371094 L 3.429688 16.371094 C 3.308594 16.371094 3.226562 16.289062 3.226562 16.164062 C 3.226562 16.042969 3.308594 15.960938 3.429688 15.960938 Z M 3.429688 17.601562 L 8.445312 17.601562 C 8.570312 17.601562 8.652344 17.683594 8.652344 17.808594 C 8.652344 17.929688 8.570312 18.011719 8.445312 18.011719 L 3.429688 18.011719 C 3.308594 18.011719 3.226562 17.929688 3.226562 17.808594 C 3.226562 17.683594 3.308594 17.601562 3.429688 17.601562 Z M 14.03125 15.488281 L 15.316406 10.972656 C 15.359375 10.867188 15.460938 10.808594 15.5625 10.828125 C 15.664062 10.867188 15.726562 10.972656 15.703125 11.074219 L 14.421875 15.589844 C 14.398438 15.671875 14.316406 15.734375 14.214844 15.734375 C 14.195312 15.734375 14.175781 15.734375 14.15625 15.734375 C 14.074219 15.714844 14.011719 15.609375 14.03125 15.488281 Z M 16.5625 12.347656 C 16.480469 12.285156 16.4375 12.160156 16.519531 12.058594 C 16.582031 11.976562 16.703125 11.9375 16.804688 12.019531 L 18.640625 13.332031 C 18.703125 13.375 18.722656 13.433594 18.722656 13.496094 C 18.722656 13.558594 18.679688 13.621094 18.640625 13.660156 L 16.804688 14.972656 C 16.765625 14.996094 16.722656 15.015625 16.683594 15.015625 C 16.621094 15.015625 16.5625 14.996094 16.519531 14.933594 C 16.457031 14.832031 16.480469 14.707031 16.5625 14.644531 L 18.171875 13.496094 Z M 21.65625 18.011719 C 21.535156 18.011719 21.453125 17.929688 21.453125 17.808594 C 21.453125 17.683594 21.535156 17.601562 21.65625 17.601562 L 26.671875 17.601562 C 26.796875 17.601562 26.875 17.683594 26.875 17.808594 C 26.875 17.929688 26.796875 18.011719 26.671875 18.011719 Z M 23.535156 18.628906 C 23.535156 18.75 23.453125 18.832031 23.328125 18.832031 L 18.945312 18.832031 C 18.824219 18.832031 18.742188 18.75 18.742188 18.628906 C 18.742188 18.503906 18.824219 18.421875 18.945312 18.421875 L 23.351562 18.421875 C 23.453125 18.421875 23.535156 18.503906 23.535156 18.628906 Z M 26.671875 16.371094 L 21.882812 16.371094 C 21.757812 16.371094 21.679688 16.289062 21.679688 16.164062 C 21.679688 16.042969 21.757812 15.960938 21.882812 15.960938 L 26.671875 15.960938 C 26.796875 15.960938 26.875 16.042969 26.875 16.164062 C 26.875 16.289062 26.796875 16.371094 26.671875 16.371094 Z M 26.671875 15.550781 L 21.65625 15.550781 C 21.535156 15.550781 21.453125 15.46875 21.453125 15.34375 C 21.453125 15.222656 21.535156 15.136719 21.65625 15.136719 L 26.671875 15.136719 C 26.796875 15.136719 26.875 15.222656 26.875 15.34375 C 26.875 15.46875 26.796875 15.550781 26.671875 15.550781 Z M 23.960938 13.496094 C 24.082031 13.496094 24.164062 13.578125 24.164062 13.703125 C 24.164062 13.824219 24.082031 13.90625 23.960938 13.90625 L 20.394531 13.90625 C 20.269531 13.90625 20.191406 13.824219 20.191406 13.703125 C 20.191406 13.578125 20.269531 13.496094 20.394531 13.496094 Z M 20.414062 12.058594 C 20.414062 11.9375 20.496094 11.855469 20.617188 11.855469 L 25.632812 11.855469 C 25.753906 11.855469 25.835938 11.9375 25.835938 12.058594 C 25.835938 12.183594 25.753906 12.265625 25.632812 12.265625 L 20.617188 12.265625 C 20.496094 12.265625 20.414062 12.183594 20.414062 12.058594 Z M 23.960938 14.523438 C 23.960938 14.644531 23.878906 14.726562 23.757812 14.726562 L 21.65625 14.726562 C 21.535156 14.726562 21.453125 14.644531 21.453125 14.523438 C 21.453125 14.398438 21.535156 14.316406 21.65625 14.316406 L 23.738281 14.316406 C 23.859375 14.316406 23.960938 14.398438 23.960938 14.523438 Z M 26.671875 13.085938 L 21.65625 13.085938 C 21.535156 13.085938 21.453125 13.003906 21.453125 12.878906 C 21.453125 12.757812 21.535156 12.675781 21.65625 12.675781 L 26.671875 12.675781 C 26.796875 12.675781 26.875 12.757812 26.875 12.878906 C 26.875 13.003906 26.796875 13.085938 26.671875 13.085938 Z M 26.671875 10.621094 L 21.882812 10.621094 C 21.757812 10.621094 21.679688 10.539062 21.679688 10.417969 C 21.679688 10.292969 21.757812 10.210938 21.882812 10.210938 L 26.671875 10.210938 C 26.796875 10.210938 26.875 10.292969 26.875 10.417969 C 26.875 10.539062 26.796875 10.621094 26.671875 10.621094 Z M 26.671875 9.800781 L 23.125 9.800781 C 23.003906 9.800781 22.921875 9.71875 22.921875 9.597656 C 22.921875 9.472656 23.003906 9.390625 23.125 9.390625 L 26.671875 9.390625 C 26.796875 9.390625 26.875 9.472656 26.875 9.597656 C 26.875 9.71875 26.796875 9.800781 26.671875 9.800781 Z M 26.671875 8.160156 L 22.085938 8.160156 C 21.964844 8.160156 21.882812 8.078125 21.882812 7.953125 C 21.882812 7.832031 21.964844 7.75 22.085938 7.75 L 26.671875 7.75 C 26.796875 7.75 26.875 7.832031 26.875 7.953125 C 26.875 8.078125 26.796875 8.160156 26.671875 8.160156 Z M 24.59375 8.570312 C 24.714844 8.570312 24.796875 8.652344 24.796875 8.773438 C 24.796875 8.898438 24.714844 8.980469 24.59375 8.980469 L 20.191406 8.980469 C 20.066406 8.980469 19.984375 8.898438 19.984375 8.773438 C 19.984375 8.652344 20.066406 8.570312 20.191406 8.570312 Z M 25 11.03125 C 25.125 11.03125 25.207031 11.113281 25.207031 11.238281 C 25.207031 11.363281 25.125 11.445312 25 11.445312 L 19.558594 11.445312 C 19.433594 11.445312 19.355469 11.363281 19.355469 11.238281 C 19.355469 11.113281 19.433594 11.03125 19.558594 11.03125 Z M 22.71875 16.78125 C 22.839844 16.78125 22.921875 16.863281 22.921875 16.984375 C 22.921875 17.109375 22.839844 17.191406 22.71875 17.191406 L 18.3125 17.191406 C 18.191406 17.191406 18.109375 17.109375 18.109375 16.984375 C 18.109375 16.863281 18.191406 16.78125 18.3125 16.78125 Z M 27.691406 6.105469 L 2.414062 6.105469 L 2.414062 5.285156 C 2.414062 5.058594 2.59375 4.875 2.820312 4.875 L 27.285156 4.875 C 27.507812 4.875 27.691406 5.058594 27.691406 5.285156 Z M 27.691406 6.105469 " fill-opacity="1" fill-rule="nonzero"/></g></svg>