<svg
    xmlns="http://www.w3.org/2000/svg"
    xmlns:xlink="http://www.w3.org/1999/xlink" width="100" zoomAndPan="magnify" viewBox="0 0 224.87999 225" height="100" preserveAspectRatio="xMidYMid meet" version="1.0">
    <defs>
        <g/>
        <clipPath id="id1">
            <path d="M 62.84375 65.085938 L 161.789062 65.085938 L 161.789062 128.800781 L 62.84375 128.800781 Z M 62.84375 65.085938 " clip-rule="nonzero"/>
        </clipPath>
        <clipPath id="id2">
            <path d="M 88 89.199219 L 135 89.199219 L 135 110 L 88 110 Z M 88 89.199219 " clip-rule="nonzero"/>
        </clipPath>
        <clipPath id="id3">
            <path d="M 88 89.199219 L 135 89.199219 L 135 102 L 88 102 Z M 88 89.199219 " clip-rule="nonzero"/>
        </clipPath>
    </defs>
    <g clip-path="url(#id1)">
        <path fill="#256ab5" d="M 146.210938 92.976562 C 146.230469 92.59375 146.242188 92.222656 146.242188 91.859375 C 146.242188 77.421875 134.566406 65.675781 120.21875 65.675781 C 110.304688 65.675781 101.253906 71.441406 96.90625 80.273438 C 94.660156 78.777344 92.03125 77.976562 89.273438 77.976562 C 81.945312 77.976562 75.925781 83.722656 75.433594 90.972656 C 67.949219 93.714844 62.84375 100.941406 62.84375 109.050781 C 62.84375 119.667969 71.425781 128.304688 81.980469 128.304688 L 144.171875 128.304688 C 153.886719 128.304688 161.789062 120.355469 161.789062 110.582031 C 161.789062 101.5 154.96875 93.996094 146.210938 92.976562 Z M 146.210938 92.976562 " fill-opacity="1" fill-rule="nonzero"/>
    </g>
    <path fill="#ffffff" d="M 133.636719 115.765625 C 133.628906 115.933594 133.539062 116.023438 133.375 116.035156 L 131.671875 116.035156 C 131.449219 115.160156 131.742188 113.230469 131.757812 113.132812 C 131.285156 114.535156 131.332031 115.554688 131.394531 116.035156 L 131.265625 116.035156 C 131.101562 116.023438 131.011719 115.933594 131.003906 115.769531 C 130.984375 115.625 130.976562 115.480469 130.976562 115.335938 C 130.972656 115.082031 131.003906 114.832031 131.0625 114.582031 C 131.132812 114.292969 131.214844 114.003906 131.269531 113.707031 L 131.792969 111.078125 L 133.03125 111.078125 L 133.335938 113.207031 C 133.402344 113.667969 133.472656 114.125 133.582031 114.582031 C 133.675781 114.972656 133.695312 115.367188 133.644531 115.765625 " fill-opacity="1" fill-rule="nonzero"/>
    <path fill="#ffffff" d="M 132.320312 110.402344 C 132.171875 110.402344 132.097656 110.328125 132.097656 110.179688 L 132.097656 101.472656 C 132.109375 101.339844 132.183594 101.269531 132.320312 101.269531 C 132.457031 101.269531 132.527344 101.339844 132.539062 101.472656 L 132.539062 110.179688 C 132.539062 110.328125 132.464844 110.402344 132.320312 110.402344 " fill-opacity="1" fill-rule="nonzero"/>
    <path fill="#ffffff" d="M 133.152344 110.671875 C 133.152344 110.902344 133.074219 111.101562 132.910156 111.261719 C 132.746094 111.425781 132.550781 111.507812 132.320312 111.507812 C 132.089844 111.507812 131.894531 111.425781 131.730469 111.261719 C 131.566406 111.101562 131.488281 110.902344 131.488281 110.671875 C 131.488281 110.441406 131.566406 110.246094 131.730469 110.082031 C 131.894531 109.917969 132.089844 109.839844 132.320312 109.839844 C 132.550781 109.839844 132.746094 109.917969 132.910156 110.082031 C 133.074219 110.246094 133.152344 110.441406 133.152344 110.671875 " fill-opacity="1" fill-rule="nonzero"/>
    <path fill="#ffffff" d="M 131.679688 110.585938 C 131.679688 110.273438 131.8125 110.035156 132.082031 109.875 C 131.964844 109.90625 131.859375 109.960938 131.769531 110.042969 C 131.675781 110.121094 131.605469 110.214844 131.554688 110.324219 C 131.503906 110.433594 131.476562 110.546875 131.476562 110.667969 C 131.476562 110.789062 131.5 110.90625 131.546875 111.015625 C 131.597656 111.128906 131.667969 111.222656 131.757812 111.300781 C 131.847656 111.382812 131.953125 111.441406 132.066406 111.476562 C 132.183594 111.511719 132.300781 111.519531 132.421875 111.503906 C 132.539062 111.488281 132.652344 111.445312 132.753906 111.382812 C 132.628906 111.417969 132.5 111.425781 132.371094 111.402344 C 132.242188 111.378906 132.125 111.328125 132.019531 111.25 C 131.914062 111.171875 131.832031 111.074219 131.773438 110.957031 C 131.714844 110.839844 131.683594 110.714844 131.683594 110.582031 " fill-opacity="1" fill-rule="nonzero"/>
    <g clip-path="url(#id2)">
        <path fill="#ffffff" d="M 134.367188 100.699219 C 134.527344 100.78125 134.601562 100.910156 134.597656 101.089844 C 134.59375 101.269531 134.507812 101.394531 134.34375 101.464844 L 125.183594 105.414062 L 116.019531 109.359375 C 113.023438 109.054688 110.027344 109.054688 107.03125 109.359375 L 97.871094 105.414062 L 88.710938 101.464844 C 88.546875 101.394531 88.460938 101.269531 88.457031 101.089844 C 88.449219 100.910156 88.527344 100.78125 88.6875 100.699219 L 111.332031 89.257812 C 111.460938 89.195312 111.585938 89.195312 111.714844 89.257812 Z M 134.367188 100.699219 " fill-opacity="1" fill-rule="nonzero"/>
    </g>
    <g clip-path="url(#id3)">
        <path fill="#256ab5" d="M 111.332031 89.894531 C 111.457031 89.832031 111.585938 89.832031 111.710938 89.894531 L 133.644531 101.765625 C 133.679688 101.78125 134.429688 101.375 134.453125 101.398438 C 134.507812 101.351562 134.546875 101.292969 134.570312 101.230469 C 134.597656 101.164062 134.605469 101.09375 134.597656 101.023438 C 134.585938 100.957031 134.5625 100.890625 134.523438 100.832031 C 134.480469 100.777344 134.429688 100.730469 134.367188 100.699219 L 111.710938 89.257812 C 111.585938 89.195312 111.457031 89.195312 111.332031 89.257812 L 88.675781 100.699219 C 88.613281 100.730469 88.558594 100.773438 88.519531 100.832031 C 88.476562 100.890625 88.453125 100.953125 88.441406 101.023438 C 88.433594 101.09375 88.441406 101.160156 88.464844 101.226562 C 88.488281 101.292969 88.527344 101.351562 88.582031 101.398438 C 88.609375 101.375 89.34375 101.78125 89.382812 101.765625 Z M 111.332031 89.894531 " fill-opacity="1" fill-rule="nonzero"/>
    </g>
    <path fill="#ffffff" d="M 125.199219 103.746094 L 125.199219 111.332031 C 125.199219 112 124.632812 112.480469 124.070312 112.292969 C 121.457031 111.414062 118.777344 110.816406 116.039062 110.5 C 113.046875 110.152344 110.050781 110.152344 107.054688 110.5 C 104.316406 110.820312 101.636719 111.417969 99.023438 112.300781 C 98.460938 112.488281 97.894531 112.007812 97.894531 111.339844 L 97.894531 103.746094 C 97.886719 103.539062 97.941406 103.34375 98.054688 103.167969 C 98.167969 102.992188 98.324219 102.867188 98.519531 102.789062 C 100.609375 102.050781 102.75 101.496094 104.9375 101.121094 C 107.125 100.746094 109.328125 100.5625 111.546875 100.5625 C 113.765625 100.5625 115.96875 100.746094 118.15625 101.121094 C 120.34375 101.496094 122.484375 102.050781 124.574219 102.789062 C 124.769531 102.867188 124.925781 102.992188 125.039062 103.167969 C 125.152344 103.34375 125.207031 103.539062 125.199219 103.746094 " fill-opacity="1" fill-rule="nonzero"/>
    <path fill="#256ab5" d="M 99.269531 104.195312 C 101.351562 103.464844 103.480469 102.910156 105.65625 102.535156 C 107.832031 102.160156 110.023438 101.972656 112.230469 101.96875 C 114.441406 101.964844 116.632812 102.148438 118.808594 102.515625 C 120.984375 102.882812 123.117188 103.429688 125.203125 104.15625 L 125.203125 103.746094 C 125.207031 103.539062 125.15625 103.34375 125.039062 103.167969 C 124.925781 102.992188 124.773438 102.867188 124.578125 102.789062 C 122.484375 102.050781 120.34375 101.496094 118.15625 101.121094 C 115.96875 100.746094 113.765625 100.5625 111.546875 100.5625 C 109.328125 100.5625 107.128906 100.746094 104.941406 101.121094 C 102.753906 101.496094 100.613281 102.050781 98.519531 102.789062 C 98.324219 102.867188 98.171875 102.992188 98.054688 103.167969 C 97.941406 103.34375 97.886719 103.539062 97.894531 103.746094 L 97.894531 111.332031 C 97.882812 111.566406 97.949219 111.777344 98.089844 111.960938 C 98.234375 112.148438 98.417969 112.269531 98.644531 112.320312 L 98.644531 105.152344 C 98.640625 104.945312 98.691406 104.753906 98.808594 104.578125 C 98.921875 104.402344 99.074219 104.273438 99.269531 104.195312 " fill-opacity="1" fill-rule="nonzero"/>
    <g fill="#256ab5" fill-opacity="1">
        <g transform="translate(64.781833, 158.437962)">
            <g>
                <path d="M 4.125 0.140625 C 1.789062 0.140625 0.625 -1.144531 0.625 -3.71875 C 0.625 -5 0.941406 -5.976562 1.578125 -6.65625 C 2.210938 -7.332031 3.125 -7.671875 4.3125 -7.671875 C 5.1875 -7.671875 5.96875 -7.5 6.65625 -7.15625 L 6.046875 -5.5625 C 5.722656 -5.695312 5.421875 -5.804688 5.140625 -5.890625 C 4.867188 -5.972656 4.59375 -6.015625 4.3125 -6.015625 C 3.25 -6.015625 2.71875 -5.253906 2.71875 -3.734375 C 2.71875 -2.265625 3.25 -1.53125 4.3125 -1.53125 C 4.707031 -1.53125 5.070312 -1.582031 5.40625 -1.6875 C 5.75 -1.789062 6.085938 -1.957031 6.421875 -2.1875 L 6.421875 -0.421875 C 6.085938 -0.210938 5.75 -0.0664062 5.40625 0.015625 C 5.070312 0.0976562 4.644531 0.140625 4.125 0.140625 Z M 4.125 0.140625 "/>
            </g>
        </g>
    </g>
    <g fill="#256ab5" fill-opacity="1">
        <g transform="translate(71.863823, 158.437962)">
            <g>
                <path d="M 3.125 0 L 1.078125 0 L 1.078125 -10.46875 L 3.125 -10.46875 Z M 3.125 0 "/>
            </g>
        </g>
    </g>
    <g fill="#256ab5" fill-opacity="1">
        <g transform="translate(76.067283, 158.437962)">
            <g>
                <path d="M 2.71875 -3.78125 C 2.71875 -3.03125 2.835938 -2.460938 3.078125 -2.078125 C 3.328125 -1.703125 3.722656 -1.515625 4.265625 -1.515625 C 4.816406 -1.515625 5.210938 -1.703125 5.453125 -2.078125 C 5.691406 -2.460938 5.8125 -3.03125 5.8125 -3.78125 C 5.8125 -4.519531 5.691406 -5.078125 5.453125 -5.453125 C 5.210938 -5.828125 4.816406 -6.015625 4.265625 -6.015625 C 3.710938 -6.015625 3.316406 -5.828125 3.078125 -5.453125 C 2.835938 -5.085938 2.71875 -4.53125 2.71875 -3.78125 Z M 7.90625 -3.78125 C 7.90625 -2.550781 7.582031 -1.585938 6.9375 -0.890625 C 6.289062 -0.203125 5.394531 0.140625 4.25 0.140625 C 3.519531 0.140625 2.878906 -0.015625 2.328125 -0.328125 C 1.773438 -0.648438 1.351562 -1.109375 1.0625 -1.703125 C 0.769531 -2.296875 0.625 -2.988281 0.625 -3.78125 C 0.625 -5.007812 0.941406 -5.960938 1.578125 -6.640625 C 2.222656 -7.328125 3.125 -7.671875 4.28125 -7.671875 C 5.007812 -7.671875 5.648438 -7.507812 6.203125 -7.1875 C 6.753906 -6.875 7.175781 -6.421875 7.46875 -5.828125 C 7.757812 -5.242188 7.90625 -4.5625 7.90625 -3.78125 Z M 7.90625 -3.78125 "/>
            </g>
        </g>
    </g>
    <g fill="#256ab5" fill-opacity="1">
        <g transform="translate(84.595263, 158.437962)">
            <g>
                <path d="M 6.40625 0 L 6.125 -0.96875 L 6.015625 -0.96875 C 5.796875 -0.613281 5.484375 -0.335938 5.078125 -0.140625 C 4.679688 0.046875 4.222656 0.140625 3.703125 0.140625 C 2.816406 0.140625 2.148438 -0.09375 1.703125 -0.5625 C 1.253906 -1.039062 1.03125 -1.726562 1.03125 -2.625 L 1.03125 -7.515625 L 3.09375 -7.515625 L 3.09375 -3.125 C 3.09375 -2.582031 3.1875 -2.175781 3.375 -1.90625 C 3.570312 -1.632812 3.878906 -1.5 4.296875 -1.5 C 4.867188 -1.5 5.28125 -1.691406 5.53125 -2.078125 C 5.789062 -2.460938 5.921875 -3.097656 5.921875 -3.984375 L 5.921875 -7.515625 L 7.984375 -7.515625 L 7.984375 0 Z M 6.40625 0 "/>
            </g>
        </g>
    </g>
    <g fill="#256ab5" fill-opacity="1">
        <g transform="translate(93.647836, 158.437962)">
            <g>
                <path d="M 3.453125 0.140625 C 2.578125 0.140625 1.882812 -0.203125 1.375 -0.890625 C 0.875 -1.578125 0.625 -2.53125 0.625 -3.75 C 0.625 -4.976562 0.878906 -5.9375 1.390625 -6.625 C 1.898438 -7.320312 2.609375 -7.671875 3.515625 -7.671875 C 4.460938 -7.671875 5.179688 -7.300781 5.671875 -6.5625 L 5.75 -6.5625 C 5.644531 -7.125 5.59375 -7.625 5.59375 -8.0625 L 5.59375 -10.46875 L 7.65625 -10.46875 L 7.65625 0 L 6.078125 0 L 5.671875 -0.96875 L 5.59375 -0.96875 C 5.125 -0.226562 4.410156 0.140625 3.453125 0.140625 Z M 4.171875 -1.5 C 4.703125 -1.5 5.085938 -1.648438 5.328125 -1.953125 C 5.578125 -2.265625 5.710938 -2.785156 5.734375 -3.515625 L 5.734375 -3.734375 C 5.734375 -4.546875 5.609375 -5.125 5.359375 -5.46875 C 5.109375 -5.820312 4.703125 -6 4.140625 -6 C 3.679688 -6 3.328125 -5.800781 3.078125 -5.40625 C 2.828125 -5.019531 2.703125 -4.457031 2.703125 -3.71875 C 2.703125 -2.976562 2.828125 -2.421875 3.078125 -2.046875 C 3.335938 -1.679688 3.703125 -1.5 4.171875 -1.5 Z M 4.171875 -1.5 "/>
            </g>
        </g>
    </g>
    <g fill="#256ab5" fill-opacity="1">
        <g transform="translate(102.364131, 158.437962)">
            <g/></g>
    </g>
    <g fill="#256ab5" fill-opacity="1">
        <g transform="translate(105.939554, 158.437962)">
            <g>
                <path d="M 0.546875 -3.375 L 0.671875 -3.984375 L 3.75 -3.984375 L 3.640625 -3.375 Z M 0.546875 -3.375 "/>
            </g>
        </g>
    </g>
    <g fill="#256ab5" fill-opacity="1">
        <g transform="translate(110.169917, 158.437962)">
            <g/></g>
    </g>
    <g fill="#256ab5" fill-opacity="1">
        <g transform="translate(113.747902, 158.437962)">
            <g>
                <path d="M 3.203125 0.140625 C 2.421875 0.140625 1.804688 -0.109375 1.359375 -0.609375 C 0.910156 -1.109375 0.6875 -1.796875 0.6875 -2.671875 C 0.6875 -3.535156 0.847656 -4.34375 1.171875 -5.09375 C 1.503906 -5.851562 1.953125 -6.429688 2.515625 -6.828125 C 3.078125 -7.222656 3.726562 -7.421875 4.46875 -7.421875 C 5.070312 -7.421875 5.613281 -7.328125 6.09375 -7.140625 L 5.90625 -6.53125 C 5.425781 -6.738281 4.9375 -6.84375 4.4375 -6.84375 C 3.851562 -6.84375 3.328125 -6.671875 2.859375 -6.328125 C 2.398438 -5.984375 2.035156 -5.484375 1.765625 -4.828125 C 1.503906 -4.179688 1.375 -3.46875 1.375 -2.6875 C 1.375 -1.976562 1.539062 -1.429688 1.875 -1.046875 C 2.207031 -0.660156 2.675781 -0.46875 3.28125 -0.46875 C 3.59375 -0.46875 3.882812 -0.492188 4.15625 -0.546875 C 4.425781 -0.609375 4.722656 -0.71875 5.046875 -0.875 L 5.046875 -0.25 C 4.523438 0.0078125 3.910156 0.140625 3.203125 0.140625 Z M 3.203125 0.140625 "/>
            </g>
        </g>
    </g>
    <g fill="#256ab5" fill-opacity="1">
        <g transform="translate(119.713453, 158.437962)">
            <g>
                <path d="M 4.40625 -7.421875 C 5.445312 -7.421875 6.070312 -6.929688 6.28125 -5.953125 L 6.328125 -5.953125 L 6.71875 -7.3125 L 7.265625 -7.3125 L 5.71875 0 L 5.171875 0 L 5.46875 -1.84375 L 5.4375 -1.84375 C 5.050781 -1.207031 4.628906 -0.71875 4.171875 -0.375 C 3.710938 -0.03125 3.179688 0.140625 2.578125 0.140625 C 1.316406 0.140625 0.6875 -0.695312 0.6875 -2.375 C 0.6875 -3.257812 0.851562 -4.101562 1.1875 -4.90625 C 1.53125 -5.707031 1.984375 -6.328125 2.546875 -6.765625 C 3.109375 -7.203125 3.726562 -7.421875 4.40625 -7.421875 Z M 2.734375 -0.46875 C 3.128906 -0.46875 3.523438 -0.609375 3.921875 -0.890625 C 4.316406 -1.171875 4.671875 -1.539062 4.984375 -2 C 5.304688 -2.46875 5.550781 -2.984375 5.71875 -3.546875 C 5.882812 -4.117188 5.96875 -4.597656 5.96875 -4.984375 C 5.96875 -5.335938 5.910156 -5.65625 5.796875 -5.9375 C 5.679688 -6.21875 5.507812 -6.4375 5.28125 -6.59375 C 5.050781 -6.757812 4.765625 -6.84375 4.421875 -6.84375 C 3.867188 -6.84375 3.363281 -6.660156 2.90625 -6.296875 C 2.457031 -5.929688 2.085938 -5.378906 1.796875 -4.640625 C 1.515625 -3.910156 1.375 -3.179688 1.375 -2.453125 C 1.375 -1.773438 1.484375 -1.273438 1.703125 -0.953125 C 1.929688 -0.628906 2.273438 -0.46875 2.734375 -0.46875 Z M 2.734375 -0.46875 "/>
            </g>
        </g>
    </g>
    <g fill="#256ab5" fill-opacity="1">
        <g transform="translate(127.333486, 158.437962)">
            <g>
                <path d="M 4.78125 0 L 5.78125 -4.53125 C 5.882812 -5.09375 5.9375 -5.457031 5.9375 -5.625 C 5.9375 -6.4375 5.59375 -6.84375 4.90625 -6.84375 C 4.425781 -6.84375 3.972656 -6.691406 3.546875 -6.390625 C 3.128906 -6.085938 2.773438 -5.664062 2.484375 -5.125 C 2.191406 -4.582031 1.96875 -3.941406 1.8125 -3.203125 L 1.140625 0 L 0.484375 0 L 2.03125 -7.3125 L 2.578125 -7.3125 L 2.359375 -5.90625 L 2.390625 -5.90625 C 2.753906 -6.40625 3.160156 -6.78125 3.609375 -7.03125 C 4.066406 -7.289062 4.546875 -7.421875 5.046875 -7.421875 C 5.523438 -7.421875 5.890625 -7.269531 6.140625 -6.96875 C 6.398438 -6.675781 6.535156 -6.242188 6.546875 -5.671875 L 6.59375 -5.671875 C 6.9375 -6.242188 7.335938 -6.675781 7.796875 -6.96875 C 8.265625 -7.269531 8.765625 -7.421875 9.296875 -7.421875 C 9.828125 -7.421875 10.238281 -7.28125 10.53125 -7 C 10.820312 -6.726562 10.96875 -6.335938 10.96875 -5.828125 C 10.96875 -5.691406 10.960938 -5.5625 10.953125 -5.4375 C 10.941406 -5.320312 10.898438 -5.054688 10.828125 -4.640625 L 9.796875 0 L 9.125 0 L 10.125 -4.578125 C 10.238281 -5.117188 10.296875 -5.515625 10.296875 -5.765625 C 10.296875 -6.109375 10.195312 -6.375 10 -6.5625 C 9.8125 -6.75 9.546875 -6.84375 9.203125 -6.84375 C 8.503906 -6.84375 7.882812 -6.535156 7.34375 -5.921875 C 6.800781 -5.304688 6.421875 -4.492188 6.203125 -3.484375 L 5.46875 0 Z M 4.78125 0 "/>
            </g>
        </g>
    </g>
    <g fill="#256ab5" fill-opacity="1">
        <g transform="translate(139.1099, 158.437962)">
            <g>
                <path d="M 3.34375 0.109375 C 2.3125 0.109375 1.6875 -0.378906 1.46875 -1.359375 L 1.453125 -1.359375 C 1.390625 -1.035156 1.050781 0.519531 0.4375 3.3125 L -0.21875 3.3125 L 2.03125 -7.3125 L 2.59375 -7.3125 L 2.28125 -5.46875 L 2.328125 -5.46875 C 2.734375 -6.15625 3.171875 -6.65625 3.640625 -6.96875 C 4.109375 -7.289062 4.625 -7.453125 5.1875 -7.453125 C 5.789062 -7.453125 6.253906 -7.242188 6.578125 -6.828125 C 6.910156 -6.421875 7.078125 -5.789062 7.078125 -4.9375 C 7.078125 -4.0625 6.914062 -3.226562 6.59375 -2.4375 C 6.269531 -1.644531 5.828125 -1.019531 5.265625 -0.5625 C 4.703125 -0.113281 4.0625 0.109375 3.34375 0.109375 Z M 5.03125 -6.84375 C 4.644531 -6.84375 4.253906 -6.710938 3.859375 -6.453125 C 3.472656 -6.191406 3.113281 -5.816406 2.78125 -5.328125 C 2.445312 -4.835938 2.195312 -4.300781 2.03125 -3.71875 C 1.875 -3.144531 1.796875 -2.679688 1.796875 -2.328125 C 1.796875 -1.765625 1.929688 -1.3125 2.203125 -0.96875 C 2.484375 -0.632812 2.863281 -0.46875 3.34375 -0.46875 C 3.894531 -0.46875 4.394531 -0.65625 4.84375 -1.03125 C 5.300781 -1.40625 5.671875 -1.953125 5.953125 -2.671875 C 6.234375 -3.390625 6.375 -4.117188 6.375 -4.859375 C 6.375 -6.179688 5.925781 -6.84375 5.03125 -6.84375 Z M 5.03125 -6.84375 "/>
            </g>
        </g>
    </g>
    <g fill="#256ab5" fill-opacity="1">
        <g transform="translate(146.837542, 158.437962)">
            <g>
                <path d="M 2.5625 -7.3125 L 1.546875 -2.625 C 1.441406 -2.144531 1.390625 -1.785156 1.390625 -1.546875 C 1.390625 -1.222656 1.492188 -0.960938 1.703125 -0.765625 C 1.921875 -0.566406 2.234375 -0.46875 2.640625 -0.46875 C 3.140625 -0.46875 3.609375 -0.613281 4.046875 -0.90625 C 4.484375 -1.207031 4.847656 -1.628906 5.140625 -2.171875 C 5.441406 -2.710938 5.664062 -3.335938 5.8125 -4.046875 L 6.515625 -7.3125 L 7.1875 -7.3125 L 5.625 0 L 5.09375 0 L 5.28125 -1.375 L 5.234375 -1.375 C 4.484375 -0.382812 3.578125 0.109375 2.515625 0.109375 C 1.929688 0.109375 1.488281 -0.03125 1.1875 -0.3125 C 0.882812 -0.59375 0.734375 -1 0.734375 -1.53125 C 0.734375 -1.800781 0.78125 -2.179688 0.875 -2.671875 L 1.890625 -7.3125 Z M 2.5625 -7.3125 "/>
            </g>
        </g>
    </g>
    <g fill="#256ab5" fill-opacity="1">
        <g transform="translate(154.52483, 158.437962)">
            <g>
                <path d="M 4.796875 -1.984375 C 4.796875 -1.335938 4.5625 -0.820312 4.09375 -0.4375 C 3.632812 -0.0507812 3.007812 0.140625 2.21875 0.140625 C 1.445312 0.140625 0.765625 -0.03125 0.171875 -0.375 L 0.171875 -1.09375 C 0.503906 -0.882812 0.847656 -0.722656 1.203125 -0.609375 C 1.554688 -0.492188 1.882812 -0.4375 2.1875 -0.4375 C 2.8125 -0.4375 3.285156 -0.566406 3.609375 -0.828125 C 3.941406 -1.085938 4.109375 -1.457031 4.109375 -1.9375 C 4.109375 -2.125 4.070312 -2.285156 4 -2.421875 C 3.925781 -2.566406 3.8125 -2.707031 3.65625 -2.84375 C 3.507812 -2.976562 3.210938 -3.171875 2.765625 -3.421875 C 2.109375 -3.773438 1.660156 -4.097656 1.421875 -4.390625 C 1.191406 -4.691406 1.078125 -5.050781 1.078125 -5.46875 C 1.078125 -6.039062 1.296875 -6.507812 1.734375 -6.875 C 2.179688 -7.238281 2.765625 -7.421875 3.484375 -7.421875 C 3.816406 -7.421875 4.171875 -7.378906 4.546875 -7.296875 C 4.921875 -7.222656 5.238281 -7.125 5.5 -7 L 5.265625 -6.40625 C 4.648438 -6.695312 4.054688 -6.84375 3.484375 -6.84375 C 2.960938 -6.84375 2.546875 -6.722656 2.234375 -6.484375 C 1.921875 -6.242188 1.765625 -5.929688 1.765625 -5.546875 C 1.765625 -5.304688 1.800781 -5.109375 1.875 -4.953125 C 1.945312 -4.804688 2.082031 -4.65625 2.28125 -4.5 C 2.476562 -4.34375 2.75 -4.171875 3.09375 -3.984375 C 3.601562 -3.703125 3.960938 -3.46875 4.171875 -3.28125 C 4.390625 -3.101562 4.546875 -2.910156 4.640625 -2.703125 C 4.742188 -2.492188 4.796875 -2.253906 4.796875 -1.984375 Z M 4.796875 -1.984375 "/>
            </g>
        </g>
    </g>
</svg>